<?xml version="1.0" standalone="no"?>
<!DOCTYPE svg PUBLIC "-//W3C//DTD SVG 1.1//EN" "http://www.w3.org/Graphics/SVG/1.1/DTD/svg11.dtd" >
<svg xmlns="http://www.w3.org/2000/svg">
<metadata></metadata>
<defs>
<font id="bodoniflfbold" horiz-adv-x="1210" >
<font-face units-per-em="2048" ascent="1638" descent="-410" />
<missing-glyph horiz-adv-x="573" />
<glyph horiz-adv-x="2048" />
<glyph horiz-adv-x="2048" />
<glyph horiz-adv-x="682" />
<glyph horiz-adv-x="827" d="M172 1225q47 -57 109.5 -85t128.5 -28t124 27.5t99 85.5l-27 26q-39 -41 -91 -62.5t-109 -21.5t-111.5 21.5t-95.5 62.5z" />
<glyph horiz-adv-x="802" d="M236 1180q0 -68 48 -116t115 -48q68 0 116 48t48 116t-48 115.5t-116 47.5t-115.5 -48t-47.5 -115z" />
<glyph horiz-adv-x="694" d="M176 1186q0 -76 54.5 -130.5t129.5 -54.5q76 0 130.5 54.5t54.5 130.5t-54.5 130t-130.5 54t-130 -54t-54 -130zM215 1186q0 61 42 103t103 42t103.5 -42t42.5 -103t-42 -103.5t-104 -42.5q-61 0 -103 42.5t-42 103.5z" />
<glyph unicode="&#xa;" horiz-adv-x="759" d="M211 985h39l160 445l-183 -89zM440 985h37l162 445l-182 -89z" />
<glyph horiz-adv-x="561" d="M170 -193q0 -61 42 -92.5t105 -31.5q47 0 87 15t40 32q0 12 -16 12q-8 0 -25 -4q-10 -2 -23 -4t-32 -2q-53 0 -69.5 27.5t-16.5 68.5q0 70 45 172h-57q-31 -43 -55.5 -90t-24.5 -103z" />
<glyph horiz-adv-x="911" d="M176 1214l227 -294h97l229 294l-12 7l-264 -162l-263 162z" />
<glyph unicode="&#xd;" horiz-adv-x="626" d="M55 0h529v33h-111v913l-418 -65v-35l111 18v-831h-111v-33z" />
<glyph horiz-adv-x="1177" d="M-10 -143h110l1090 1618h-111z" />
<glyph horiz-adv-x="1189" d="M59 0h1076v33h-111v911l-416 -63h-131v131q0 41 -5 77.5t-9 69.5q-4 29 -8 52.5t-4 45.5q0 23 6 41.5t26.5 30.5t58.5 19.5t103 7.5q74 0 120 -5t46 -16q0 -6 -16 -10q-35 -10 -62.5 -47t-27.5 -90q0 -74 47 -119t118 -45q78 0 120 43t42 115q0 111 -90 161t-297 50 q-172 0 -268 -47.5t-142.5 -115t-55.5 -143t-9 -133.5v-73h-109v-31h109v-817h-111v-33zM477 33v815h240v-815h-240z" />
<glyph horiz-adv-x="1163" d="M57 0h1078v33h-111v1345l-305 -51v-16q-10 12 -25.5 26.5t-40 25.5t-60.5 19.5t-87 8.5q-109 0 -175.5 -41t-102 -105.5t-47 -142.5t-11.5 -150v-71h-109v-33h109v-815h-113v-33zM451 1276q0 41 15 63.5t60 22.5q35 0 55.5 -8t20.5 -17q0 -6 -10 -8q-23 -8 -37 -29.5 t-14 -50.5q0 -37 23.5 -63.5t70.5 -26.5q29 0 53.5 12.5t30.5 30.5v-1169h-244v815h156v33h-156v131q0 41 -4 81t-8 74q-4 31 -8 58.5t-4 50.5z" />
<glyph horiz-adv-x="1169" d="M84 0h1010v397q0 33 -23 33q-16 0 -20 -22q-10 -78 -32 -145.5t-57.5 -118t-86 -79t-117.5 -28.5h-234v678l181 180v61l-181 -180v574h111v32h-551v-32h111v-844l-107 -107v-61l107 106v-411h-111v-33z" />
<glyph horiz-adv-x="626" d="M27 377l139 139v-483h-111v-33h529v33h-111v696l133 133v62l-133 -133v639l-418 -72v-35l111 18v-763l-139 -140v-61z" />
<glyph horiz-adv-x="1196" d="M90 0h1040v412h-36q-20 -104 -54 -176t-84.5 -116t-118 -63.5t-153.5 -19.5h-266l694 1296v49h-1012v-356h29q12 68 38 127t72 102t113.5 68t161.5 25h268l-692 -1297v-51zM350 1739l228 -295h96l229 295l-14 8l-264 -162l-263 162z" />
<glyph horiz-adv-x="864" d="M31 0h786v268h-20q-16 -106 -77 -170.5t-179 -64.5h-195l451 796v52h-729v-246h20q10 106 77.5 159.5t151.5 53.5h177l-463 -803v-45zM176 1214l227 -294h97l229 294l-12 7l-264 -162l-263 162z" />
<glyph unicode=" "  horiz-adv-x="573" />
<glyph unicode="&#x09;" horiz-adv-x="573" />
<glyph unicode="&#xa0;" horiz-adv-x="573" />
<glyph unicode="!" horiz-adv-x="538" d="M117 139q0 -68 48 -116t116 -48t115.5 48t47.5 116t-48 116t-115 48q-68 0 -116 -48t-48 -116zM137 1217q0 -43 7.5 -94.5t18.5 -105.5t22.5 -108.5t19.5 -101.5q14 -78 23.5 -175.5t19.5 -201.5h65q10 104 19.5 201.5t23.5 175.5q8 47 19.5 101.5t23 108.5t18.5 105.5 t7 94.5q0 92 -32 143t-111 51q-80 0 -112 -51t-32 -143z" />
<glyph unicode="&#x22;" horiz-adv-x="782" d="M125 1415q0 -33 12.5 -65.5t28.5 -79.5q14 -43 25.5 -103.5t11.5 -148.5q0 -20 10 -29.5t23 -9.5q12 0 22 9t10 30q0 88 11.5 148.5t25.5 103.5q16 47 28.5 80.5t12.5 64.5q0 59 -30.5 89t-79.5 30t-80 -29.5t-31 -89.5zM457 1415q0 -33 12 -65.5t29 -79.5 q14 -43 25.5 -103.5t11.5 -148.5q0 -20 10 -29.5t22 -9.5t22.5 9t10.5 30q0 88 11.5 148.5t25.5 103.5q16 47 28.5 80.5t12.5 64.5q0 59 -31 89t-80 30t-79.5 -29.5t-30.5 -89.5z" />
<glyph unicode="#" horiz-adv-x="1277" d="M82 612h229l-69 -272h166l69 272h232l-72 -282h164l71 282h228l14 54h-227l63 245h226l14 54h-227l69 270h-164l-69 -270h-232l70 270h-166l-70 -270h-229l-12 -54h229l-63 -245h-230zM492 666l61 245h233l-63 -245h-231z" />
<glyph unicode="$" horiz-adv-x="1163" d="M111 248q0 -41 23.5 -85t73.5 -82t132 -63.5t199 -29.5v-168h45v168q98 4 184 37.5t149.5 92t100.5 137.5t37 173q0 88 -25.5 170t-82 149.5t-145.5 112.5t-218 60v432q76 0 131 -10.5t92 -23.5t54.5 -26.5t17.5 -19.5q0 -8 -5.5 -10t-23.5 -2q-43 0 -68.5 -34t-25.5 -75 q0 -57 35.5 -85t82.5 -28t84 30t37 91q0 106 -112.5 170t-298.5 64v118h-45v-118q-106 -6 -184.5 -44t-128.5 -94.5t-74.5 -125t-24.5 -136.5q0 -180 103.5 -288.5t308.5 -137.5v-538q-76 2 -132.5 15t-93.5 28.5t-54 32t-17 24.5q0 6 10 6q53 0 78.5 35t25.5 78 q0 63 -36.5 96t-90.5 33q-57 0 -87.5 -38t-30.5 -91zM299 1147q0 78 61.5 138.5t178.5 66.5v-424q-121 12 -180.5 77.5t-59.5 141.5zM584 29v532q63 -10 111 -37.5t81 -65.5t48.5 -84t15.5 -91q0 -102 -63.5 -174t-192.5 -80z" />
<glyph unicode="%" horiz-adv-x="1867" d="M63 1006q0 -76 25 -148t76 -128t128 -90t181 -34q98 0 172 34t123 90t73.5 128t24.5 148q0 74 -24.5 144.5t-74.5 125.5t-126 89t-176 34q-102 0 -177 -34t-125 -89t-75 -125.5t-25 -144.5zM354 969v65q0 90 2 154.5t12.5 105.5t33 59.5t63.5 18.5t63.5 -18.5t32.5 -59.5 t12 -105.5t2 -154.5v-65q0 -90 -2 -154.5t-11 -104.5t-29.5 -58.5t-59.5 -18.5q-45 0 -68.5 18.5t-35 58.5t-13.5 104.5t-2 154.5zM436 -8h96l912 1407h-96zM1014 399q0 -76 24.5 -147.5t75.5 -127.5t128 -90t181 -34q98 0 172 34t123 90t74 128t25 147q0 74 -25 144.5 t-75 126t-125.5 89.5t-176.5 34q-102 0 -177 -34t-125 -89.5t-74.5 -126t-24.5 -144.5zM1305 362v66q0 90 2 154.5t12 105.5t32.5 59.5t63.5 18.5t63.5 -18.5t33 -59.5t12.5 -105.5t2 -154.5v-66q0 -90 -2 -154.5t-11.5 -104.5t-30 -58t-59.5 -18q-45 0 -68.5 18t-34.5 58 t-13 104.5t-2 154.5z" />
<glyph unicode="&#x26;" horiz-adv-x="1558" d="M55 383q0 -102 42 -179t114 -127t170 -76t209 -26q162 0 269.5 47.5t172 124t92 172t27.5 191.5q106 0 177 30.5t113 81t59.5 113t17.5 125.5q0 53 -12.5 105.5t-34 92.5t-54.5 64.5t-71 24.5q-59 0 -89 -31t-30 -84q0 -49 31.5 -74.5t72.5 -25.5q33 0 62.5 17.5 t50.5 58.5q20 -31 20 -74q0 -106 -78.5 -145t-252.5 -39q-80 0 -141.5 -2.5t-108.5 -8.5t-82 -17t-64 -30q-41 -27 -67.5 -63.5t-42 -79.5t-22.5 -87t-7 -83q0 -76 33 -119t94 -43q49 0 79 28.5t30 80.5q0 53 -30 80.5t-75 27.5q-41 0 -82 -20q0 72 59.5 87t184.5 15 q63 0 125.5 -3t95.5 -5q0 -86 -26.5 -174t-88 -160t-162 -117t-245.5 -45q-63 0 -106.5 32t-71 84t-40 120.5t-12.5 142.5q0 72 21.5 134.5t56.5 108.5t76 72.5t82 26.5h63q29 0 29 21q0 6 -6 12t-23 6h-63q-39 0 -77 19.5t-68.5 57.5t-49 92t-18.5 122q0 76 16.5 132t44 93 t63.5 54.5t75 17.5q49 0 89 -7t68.5 -18.5t44 -22t15.5 -16.5q0 -8 -19 -8q-72 0 -115.5 -41t-43.5 -104q0 -66 38.5 -114t124.5 -48q84 0 124 53t40 121q0 45 -21.5 89t-66.5 78t-114.5 54.5t-165.5 20.5q-117 0 -202 -25.5t-140.5 -71t-82 -106.5t-26.5 -131 q0 -76 24.5 -132.5t67.5 -94t103.5 -59t134.5 -27.5q-78 -8 -150.5 -34t-129 -71t-90.5 -110.5t-34 -151.5z" />
<glyph unicode="'" horiz-adv-x="440" d="M113 1415q0 -33 12 -65.5t29 -79.5q14 -43 25 -103.5t11 -148.5q0 -20 10.5 -29.5t22.5 -9.5t22.5 9t10.5 30q0 88 11.5 148.5t25.5 103.5q16 47 28.5 80.5t12.5 64.5q0 59 -31 89t-80 30t-79.5 -29.5t-30.5 -89.5z" />
<glyph unicode="(" horiz-adv-x="946" d="M57 604q0 -156 43 -305t129 -266t214 -188.5t298 -71.5q78 0 116 4t38 28q0 23 -37 27t-96 4q-49 0 -97.5 23.5t-86 77t-60 138.5t-22.5 206v647q0 121 22.5 206t60 138t86 76.5t97.5 23.5q59 0 94 5t35 28q0 18 -37 24.5t-111 6.5q-172 0 -300 -72t-214 -188.5 t-129 -266t-43 -305.5z" />
<glyph unicode=")" horiz-adv-x="946" d="M55 -195q0 -25 38 -28.5t116 -3.5q170 0 298 71.5t214 188.5t129 266.5t43 304.5q0 156 -43 305.5t-129 266t-214 188.5t-300 72q-74 0 -111 -6.5t-37 -24.5q0 -23 35 -28t94 -5q49 0 97.5 -23.5t86.5 -76.5t60.5 -138t22.5 -206v-647q0 -121 -22.5 -206t-60.5 -138.5 t-86 -77t-98 -23.5q-59 0 -96 -4t-37 -27z" />
<glyph unicode="*" horiz-adv-x="837" d="M76 1262q0 27 18.5 47t46.5 20q37 0 70 -39q59 -70 116.5 -109.5t80.5 -52.5q0 53 -7.5 117t-35.5 133q-10 27 -11 45q0 35 20.5 51.5t45.5 16.5t45 -16.5t20 -51.5q0 -18 -10 -45q-29 -70 -36 -133t-7 -117q27 14 81 54.5t114 111.5q31 39 67 39q29 0 47.5 -21.5 t18.5 -47.5q0 -23 -17.5 -43.5t-60.5 -26.5q-92 -14 -153.5 -43t-86.5 -45q23 -14 84.5 -44t155.5 -44q41 -6 59.5 -25.5t18.5 -42.5q0 -27 -18.5 -48t-47.5 -21q-16 0 -33.5 8t-33.5 31q-61 76 -115.5 112.5t-79.5 50.5q0 -53 7 -116.5t36 -132.5q10 -27 10 -46 q0 -35 -20.5 -51t-44.5 -16q-25 0 -45.5 16.5t-20.5 50.5q0 18 11 46q29 70 36 133t7 116q-23 -12 -80.5 -49t-116.5 -112q-31 -39 -68 -39q-29 0 -47 20.5t-18 46.5q0 23 17.5 42.5t58.5 25.5q96 16 158.5 45t84.5 43q-23 14 -85 44t-158 44q-41 6 -59.5 25.5t-18.5 42.5z " />
<glyph unicode="+" horiz-adv-x="704" d="M88 584h229v-230h66v230h229v65h-229v230h-66v-230h-229v-65z" />
<glyph unicode="," horiz-adv-x="550" d="M86 -289q0 -14 14 -14q10 0 19 2q156 29 245 127t89 291q0 82 -48.5 134t-115.5 52q-68 0 -116 -48t-48 -116q0 -74 48 -119t116 -45q18 0 34.5 4.5t32.5 10.5q0 -92 -58 -162t-200 -104q-12 -4 -12 -13z" />
<glyph unicode="-" horiz-adv-x="573" d="M109 584h366v65h-366v-65z" />
<glyph unicode="." horiz-adv-x="550" d="M117 139q0 -68 48 -116t116 -48t115.5 48t47.5 116t-48 116t-115 48q-68 0 -116 -48t-48 -116z" />
<glyph unicode="/" horiz-adv-x="638" d="M-23 -133h99l561 1620h-98z" />
<glyph unicode="0" d="M55 692q0 -133 35 -261t103.5 -227.5t172 -160.5t242.5 -61q137 0 241.5 61t173.5 160.5t103.5 227.5t34.5 261t-34.5 260t-103.5 226.5t-173.5 160t-241.5 60.5q-139 0 -242.5 -60.5t-172 -160t-103.5 -226.5t-35 -260zM442 360v660q0 96 9.5 161.5t30 105.5t52 57.5 t74.5 17.5t75 -17.5t52.5 -57.5t29.5 -105.5t9 -161.5v-660q0 -96 -9 -161.5t-29.5 -105.5t-52.5 -57.5t-75 -17.5t-74.5 17.5t-52 57.5t-30 105.5t-9.5 161.5z" />
<glyph unicode="1" d="M182 1090q1 -9 21 -9h10q8 0 16 2q27 4 63 14.5t72.5 24t70.5 27.5t61 27v-1143h-111v-33h528v33h-110v1343h-172q-82 -72 -187.5 -145.5t-228.5 -116.5q-33 -12 -33 -24z" />
<glyph unicode="2" d="M168 1065q0 -92 45 -142.5t119 -50.5q76 0 125 45.5t49 122.5q0 86 -46 125t-122 39q-18 0 -31.5 -4t-30.5 -8q2 20 24 48t55.5 52.5t80.5 41t103 16.5q59 0 98 -16.5t61.5 -58.5t31.5 -116t9 -186q0 -145 -22.5 -235.5t-85.5 -159.5q-23 -25 -51.5 -57t-57 -62.5 t-54.5 -56t-40 -37.5q-109 -96 -159 -185.5t-64 -134.5v-45h784l92 379q4 14 6.5 23.5t2.5 17.5q0 16 -17 16q-14 0 -24 -30q-12 -37 -27.5 -68t-39.5 -52.5t-58.5 -33.5t-87.5 -12h-453q33 33 66.5 56t74.5 44.5t89.5 43.5t109.5 50q158 72 246 207t88 305q0 131 -42 217 t-109.5 138.5t-151.5 74t-168 21.5q-98 0 -176 -30t-132.5 -77t-82 -106.5t-27.5 -118.5z" />
<glyph unicode="3" d="M168 270q0 -49 25.5 -101t75.5 -93t124 -67.5t170 -26.5q231 0 357.5 101t126.5 310q0 84 -30 147.5t-79 107.5t-112.5 69.5t-129.5 32.5q70 4 130.5 27.5t104.5 64.5t68.5 96t24.5 125q0 150 -108.5 242t-340.5 92q-90 0 -159.5 -21.5t-115.5 -55.5t-69.5 -79t-23.5 -90 q0 -78 47 -122t117 -44q76 0 122 45t46 117q0 57 -40 100t-102 43q-14 0 -22 -2h-10q-8 0 -9 4q0 6 15.5 17.5t45 22.5t69.5 19.5t89 8.5q35 0 62 -14.5t44 -48t25.5 -91t8.5 -143.5q0 -158 -47 -224.5t-150 -66.5h-176q-16 0 -23.5 -6t-7.5 -12q0 -20 31 -21h176 q119 0 169 -87t50 -255q0 -113 -11 -185.5t-33.5 -113.5t-56.5 -57.5t-79 -16.5q-55 0 -101 12.5t-79 29t-50.5 35t-17.5 30.5q0 10 4 10h4q10 -4 17.5 -5t17.5 -1q55 0 100.5 35t45.5 112q0 78 -47.5 122t-114.5 44q-63 0 -115.5 -43t-52.5 -129z" />
<glyph unicode="4" d="M123 381h461v-350h-111v-33h528v33h-110v350h190v123h-190v874h-205q-66 -102 -139.5 -221t-147 -244t-145.5 -248.5t-131 -238.5v-45zM213 504q35 66 80 144.5t94 162.5t99.5 167t97.5 159v-633h-371z" />
<glyph unicode="5" d="M174 238q0 -57 23.5 -103.5t66.5 -78t100.5 -48t124.5 -16.5q106 0 208 29.5t179.5 87t125 143.5t47.5 199q0 123 -42 205.5t-111 134t-157 74t-180 22.5t-172 -21.5t-129 -56.5q6 47 10 99.5t4 113.5v37q0 20 -2 43h400q137 0 192.5 70.5t55.5 218.5q0 47 -19 47 q-10 0 -20 -21q-10 -27 -36 -33t-75 -6h-498q-27 0 -37 -16t-10 -39q4 -47 9.5 -128t5.5 -167q0 -72 -5.5 -138.5t-17.5 -113.5q0 -4 -1 -7t-1 -7q0 -18 12 -19q10 0 25 15q37 33 89 52t110 19q49 0 98 -18t87 -61t61.5 -115t23.5 -176q0 -121 -17.5 -203t-48 -133 t-73.5 -72.5t-93 -21.5q-47 0 -83.5 9t-62.5 21.5t-40 26.5t-14 27q0 23 16 22q25 0 50.5 6t46 21.5t33.5 38t13 57.5q0 74 -40.5 106.5t-92.5 32.5q-53 0 -96 -39t-43 -120z" />
<glyph unicode="6" d="M86 639q0 -137 38 -257t106.5 -209t165 -141t214.5 -52q109 0 203 34.5t162.5 96t108.5 146.5t40 187q0 106 -35.5 187.5t-98 133.5t-146.5 78.5t-178 26.5q-84 0 -126 -25.5t-73 -62.5v203q0 109 21.5 181.5t57.5 116.5t83 62.5t98 18.5q66 0 113 -19.5t47 -35.5 q0 -8 -27 -9q-59 0 -92 -47t-33 -100q0 -68 45 -112t117 -44q74 0 114 52t40 120q0 98 -89.5 165t-242.5 67q-98 0 -209 -51.5t-205 -148.5t-156.5 -238.5t-62.5 -323.5zM467 330v248q0 33 3 71.5t9 61.5q14 41 49 77.5t86 36.5t79 -18.5t41.5 -52t15.5 -78.5t2 -98v-246 q0 -66 -2 -123t-15.5 -100t-42 -68t-82.5 -25q-53 0 -82.5 27t-43 70t-15.5 99t-2 118z" />
<glyph unicode="7" d="M133 958h27q12 49 22.5 81t23.5 50.5t32.5 25.5t50.5 7h669q-219 -274 -371.5 -564t-215.5 -558h358q0 100 10.5 217t36 243t67.5 259t105 266l170 361l-24 32h-871z" />
<glyph unicode="8" d="M160 371q0 -78 25.5 -148.5t79.5 -124t137 -86t198 -32.5t198 32.5t137 86t79.5 124t25.5 148.5q0 80 -29.5 143.5t-79.5 110.5t-119 76.5t-146 39.5q-14 2 -15 4l3 3q4 2 12 2q63 6 125.5 28.5t111.5 60.5t80 91t31 123t-32 131t-87 106t-131 70.5t-164 25.5t-164 -25.5 t-131 -70.5t-87 -106.5t-32 -130.5q0 -70 31 -123t80 -91t111.5 -60.5t126.5 -28.5q16 0 16 -5q0 -4 -16 -4q-78 -10 -147 -39.5t-119 -76.5t-79.5 -110.5t-29.5 -143.5zM487 236v280q0 33 3.5 70t14.5 67.5t33.5 50t61.5 19.5q41 0 63.5 -19.5t34 -50t13.5 -67.5t2 -70 v-280q0 -98 -20.5 -161t-92.5 -63t-92.5 62.5t-20.5 161.5zM487 973v184q0 33 4.5 69t16.5 63.5t33.5 46t58.5 18.5t59.5 -18.5t34 -46t15.5 -63.5t4 -69v-184q0 -43 -4 -80t-16.5 -65.5t-35 -45t-57.5 -16.5q-39 0 -61.5 17.5t-33.5 46t-14.5 65.5t-3.5 78z" />
<glyph unicode="9" d="M84 936q0 -109 36 -188.5t98.5 -132t146.5 -79t178 -26.5q78 0 124 24.5t74 63.5v-203q0 -109 -21.5 -181.5t-57 -115.5t-83 -60.5t-98.5 -17.5q-70 0 -109.5 20.5t-39.5 31.5q0 8 16 8q59 0 92 47t33 100q0 68 -45 112t-117 44q-74 0 -113.5 -52t-39.5 -120 q0 -98 88 -164.5t256 -66.5q106 0 216.5 51t201 148t146.5 238.5t56 323.5q0 137 -37.5 257t-106.5 209t-165 141.5t-215 52.5q-109 0 -203 -35t-163.5 -96.5t-108.5 -146.5t-39 -187zM457 817v232q0 66 2 123t15 100t42 67.5t82 24.5t83 -26.5t43 -69.5t15 -99.5t2 -117.5 v-234q0 -33 -3 -71.5t-9 -61.5q-14 -41 -47 -80t-88 -39q-51 0 -79 19.5t-41 53.5t-15 80t-2 99z" />
<glyph unicode=":" horiz-adv-x="561" d="M117 139q0 -68 48 -116t116 -48t115.5 48t47.5 116t-48 116t-115 48q-68 0 -116 -48t-48 -116zM117 733q0 -68 48 -116t116 -48t115.5 48t47.5 116t-48 116t-115 48q-68 0 -116 -48t-48 -116z" />
<glyph unicode=";" horiz-adv-x="550" d="M78 -289q0 -14 14 -14q10 0 19 2q156 29 244.5 127t88.5 291q0 82 -48 134t-115 52q-68 0 -116 -48t-48 -116q0 -74 48 -119t116 -45q18 0 34.5 4.5t32.5 10.5q0 -92 -58.5 -162t-199.5 -104q-12 -4 -12 -13zM117 733q0 -68 48 -116t116 -48t115.5 48t47.5 116t-48 116 t-115 48q-68 0 -116 -48t-48 -116z" />
<glyph unicode="&#x3c;" horiz-adv-x="770" d="M109 639l538 -360v102l-385 258l385 258v102z" />
<glyph unicode="=" horiz-adv-x="661" d="M92 469h500v66h-500v-66zM92 700h500v66h-500v-66z" />
<glyph unicode="&#x3e;" horiz-adv-x="770" d="M143 279l539 360l-539 360v-102l385 -258l-385 -258v-102z" />
<glyph unicode="?" horiz-adv-x="815" d="M106 1159q0 -49 34 -86t93 -37q33 0 55.5 11.5t38 30t22.5 41t7 42.5q0 43 -28.5 79t-81.5 36q-8 0 -8 6q0 10 47 28.5t121 18.5q76 0 113.5 -44t37.5 -109q0 -49 -8 -83t-22.5 -57.5t-33 -40t-38.5 -30.5q-25 -18 -50.5 -39t-46 -48.5t-34 -64.5t-13.5 -90v-326h33v76 q0 37 22.5 65.5t58.5 54t80 51.5t87 58q61 47 106 117.5t45 181.5q0 186 -89 275.5t-232 89.5q-86 0 -146.5 -19.5t-97.5 -49t-54.5 -66.5t-17.5 -72zM182 139q0 -68 48.5 -116t115.5 -48q68 0 116 48t48 116t-48 116t-116 48t-116 -48t-48 -116z" />
<glyph unicode="@" horiz-adv-x="1509" d="M98 659q0 -147 50.5 -266t136.5 -203t200.5 -129t243.5 -45t231.5 34t157.5 69q53 34 53 57q0 2 -1 3t-1 3q-8 14 -18 15q-10 0 -26.5 -9.5t-39 -21.5t-55.5 -26.5t-76 -28t-99 -21.5t-126 -8q-117 0 -220 44t-180 121t-121 183.5t-44 228.5q0 147 55 260t142.5 189 t192.5 115t204 39q106 0 211.5 -33t188.5 -98.5t135.5 -166t52.5 -237.5q0 -102 -27 -171t-68 -111t-89 -60t-91 -18q-29 0 -48 11t-19 54q0 20 6 55l123 541h-172l-17 -61q-20 35 -63 64.5t-121 29.5q-68 0 -137.5 -30t-128 -86t-95.5 -138t-37 -184q0 -59 20.5 -114.5 t57.5 -98.5t90.5 -69t118.5 -26q74 0 117 33t68 64q20 -59 66 -86t116 -27q80 0 151.5 22.5t126 72.5t86 132t31.5 201q0 147 -55.5 259t-145.5 187.5t-208.5 114.5t-243.5 39q-117 0 -234.5 -44t-212 -130t-154 -210t-59.5 -284zM565 563q0 98 18.5 179t50.5 138.5t75 89 t92 31.5t80.5 -28.5t48.5 -63.5l-105 -440q-23 -31 -58.5 -64.5t-102.5 -33.5q-53 0 -76 57t-23 135z" />
<glyph unicode="A" horiz-adv-x="1386" d="M70 0h309v33q-37 0 -59.5 7t-35 18.5t-16.5 24.5t-4 23q0 12 1 21.5t7 26.5l86 274h412l131 -395h-110v-33h550v33h-110l-451 1362h-141l-414 -1256q-14 -43 -52 -74.5t-103 -31.5v-33zM371 461l192 592l195 -592h-387z" />
<glyph unicode="B" d="M66 0h639q92 0 175 18.5t145 62.5t100 118.5t38 185.5q0 98 -41 165.5t-104.5 111t-137 66t-137.5 28.5q63 6 134 18t129.5 46t96.5 92.5t38 156.5q0 82 -36 141.5t-101.5 98.5t-155.5 56t-201 17h-581v-32h110v-1317h-110v-33zM506 33v702h143q57 0 91 -20.5t52.5 -60.5 t23.5 -97t5 -129v-86q0 -66 -2 -123t-18.5 -98t-51 -64.5t-100.5 -23.5h-143zM506 768v582h104q104 0 146.5 -54.5t42.5 -183.5v-86q0 -125 -40 -191.5t-132 -66.5h-121z" />
<glyph unicode="C" horiz-adv-x="1277" d="M45 690q0 -135 43 -263t128 -228.5t213 -162t298 -61.5q78 0 138.5 17.5t104.5 42t72.5 51.5t42.5 45l82 -117q14 -20 25 -20q10 0 10 22v467q0 27 -16 27q-14 0 -21 -27q-6 -33 -18 -81t-32.5 -100t-52.5 -104.5t-79 -93.5t-109.5 -66.5t-146.5 -25.5q-76 0 -130 22.5 t-90 85t-52.5 175.5t-16.5 293v205q0 182 12.5 295.5t45 176t92 84t155.5 21.5q76 0 135.5 -25.5t107.5 -74.5t85 -119t68 -158q6 -20 22 -20q14 0 15 20v363q0 33 -25 33q-16 0 -31 -19l-78 -78q-47 47 -121.5 81t-191.5 34q-172 0 -300 -61.5t-213 -162t-128 -229.5 t-43 -264z" />
<glyph unicode="D" horiz-adv-x="1277" d="M66 0h596q143 0 249.5 59.5t177 156.5t106.5 222t36 254t-36 253t-106.5 221.5t-177 156.5t-249.5 59h-596v-32h110v-1317h-110v-33zM506 33v1317h104q55 0 103.5 -26t83 -93.5t55 -186t20.5 -303.5v-98q0 -190 -20.5 -309t-55 -186.5t-80.5 -91t-100 -23.5h-110z" />
<glyph unicode="E" horiz-adv-x="1161" d="M61 0h973q33 0 44.5 16.5t11.5 44.5v336q0 33 -21 33q-20 0 -27 -33q-16 -76 -34.5 -142.5t-55.5 -115.5t-97 -77.5t-159 -28.5h-194v676h125q78 0 119.5 -51.5t52.5 -155.5q2 -37 20 -37q20 0 21 37v446q0 37 -21 37q-18 0 -20 -37q-10 -102 -52 -154.5t-120 -52.5h-125 v609h157q80 0 140.5 -29t102.5 -75t63.5 -103.5t25.5 -114.5q0 -27 21 -27q20 0 20 27l-16 297q-2 33 -18.5 45t-47.5 12h-889v-32h111v-1317h-111v-33z" />
<glyph unicode="F" horiz-adv-x="1148" d="M70 0h551v33h-111v676h125q78 0 120 -51.5t52 -155.5q2 -37 20 -37q20 0 21 37v446q0 37 -21 37q-18 0 -20 -37q-10 -102 -52 -154.5t-120 -52.5h-125v609h158q80 0 140 -29t102 -75t63.5 -103.5t25.5 -114.5q0 -27 21 -27q20 0 20 27l-14 297q-2 33 -18.5 45t-46.5 12 h-891v-32h110v-1317h-110v-33z" />
<glyph unicode="G" horiz-adv-x="1480" d="M45 688q0 -133 44 -261t132 -228.5t220 -162t309 -61.5q113 0 205 24t164.5 61.5t125.5 83.5t90 92v237h109v35h-549v-35h109v-190q0 -55 -16.5 -104.5t-48.5 -86.5t-79 -58.5t-110 -21.5q-90 0 -155 30t-105.5 97.5t-60 177t-19.5 269.5v205q0 160 24.5 270t68.5 179 t104.5 99.5t131.5 30.5q98 0 170 -21.5t126.5 -63.5t91 -103.5t65.5 -141.5q4 -10 9 -18t13 -8q10 0 11 24v336q-1 25 -15 25q-10 0 -24 -15l-78 -79q-18 14 -47 31.5t-73 32.5t-104.5 26.5t-144.5 11.5q-172 0 -302 -62.5t-217 -164t-131 -230.5t-44 -262z" />
<glyph unicode="H" horiz-adv-x="1409" d="M78 0h551v33h-111v682h387v-682h-110v-33h551v33h-111v1319h111v32h-551v-32h110v-592h-387v590h111v32h-551v-32h110v-1317h-110v-33z" />
<glyph unicode="I" horiz-adv-x="720" d="M86 0h551v33h-111v1317h111v32h-551v-32h111v-1317h-111v-33z" />
<glyph unicode="J" horiz-adv-x="890" d="M16 0q0 -37 14.5 -73t45 -64.5t78 -46t112.5 -17.5q223 0 343 121t120 371v1059h111v32h-551v-32h110v-1264q0 -53 -5 -98t-20.5 -79t-42 -53.5t-71.5 -19.5q-49 0 -83 11.5t-34 19.5t13 8q66 0 99.5 40t33.5 89t-35 91t-104 42q-66 0 -100 -41t-34 -96z" />
<glyph unicode="K" horiz-adv-x="1433" d="M76 0h551v33h-111v1317h111v32h-551v-32h110v-1317h-110v-33zM539 743l372 -710h-110v-33h581v33h-108l-506 897l387 420h111v32h-283v-32h111z" />
<glyph unicode="L" horiz-adv-x="1169" d="M84 0h1010v397q0 33 -23 33q-16 0 -20 -22q-10 -78 -32 -145.5t-57.5 -118t-86 -79t-117.5 -28.5h-234v1313h111v32h-551v-32h111v-1317h-111v-33z" />
<glyph unicode="M" horiz-adv-x="1697" d="M68 0h256v33q-41 0 -76 26.5t-35 79.5v1170l457 -1309h59l467 1317v-1284h-111v-33h551v33h-110v1317h110v32h-458l-334 -927l-336 927h-440v-32h110v-1211q0 -53 -33.5 -79.5t-76.5 -26.5v-33z" />
<glyph unicode="N" horiz-adv-x="1247" d="M66 1331l129 -157v-1035q0 -53 -34 -79.5t-77 -26.5v-33h256v33q-41 0 -76 26.5t-35 79.5v985l791 -1140h70v1263q0 51 34.5 77t75.5 26v32h-256v-32q43 0 77 -27t34 -80v-713l-590 852h-399v-51z" />
<glyph unicode="O" horiz-adv-x="1445" d="M72 692q0 -135 42 -263t125 -229.5t205.5 -163t284.5 -61.5t285 61.5t206 163t124.5 229.5t41.5 263q0 133 -41.5 262t-124.5 229.5t-206 162t-285 61.5t-284.5 -61.5t-205.5 -162t-125 -229.5t-42 -262zM465 590v205q0 154 9 262t37 178t80 102.5t138 32.5t138.5 -32.5 t80 -102.5t36.5 -178.5t9 -261.5v-205q0 -170 -9 -281.5t-36.5 -177t-80 -92.5t-138.5 -27t-138 27t-80 92.5t-37 177t-9 281.5z" />
<glyph unicode="P" horiz-adv-x="1189" d="M66 0h550v33h-110v604h201q88 0 165.5 19.5t136 62.5t93.5 112.5t35 169.5t-35 172t-93.5 118t-136 68.5t-165.5 22.5h-641v-32h110v-1317h-110v-33zM506 670v680h55q72 0 119 -23.5t75.5 -68t41 -110t12.5 -147.5q0 -160 -49 -245.5t-180 -85.5h-74z" />
<glyph unicode="Q" horiz-adv-x="1445" d="M70 692q0 -121 32.5 -236.5t98 -210.5t165 -164t232.5 -93v-193q0 -68 32 -115t86 -76.5t126.5 -44t154.5 -14.5q43 0 88 4.5t91 10.5v26q-20 -2 -41 -3t-41 -1q-47 0 -90 8.5t-77 31t-53.5 61.5t-19.5 98v205q133 23 233.5 90t167 164.5t100.5 214t34 237.5 q0 133 -41 262t-124 229.5t-206 162t-289 61.5t-289 -61.5t-205.5 -162t-123.5 -229.5t-41 -262zM465 590v205q0 154 9 262t37 178t80 102.5t138 32.5t138.5 -32.5t80 -102.5t36.5 -178.5t9 -261.5v-205q0 -170 -9 -281.5t-36.5 -177t-80 -92.5t-138.5 -27t-138 27t-80 92.5 t-37 177t-9 281.5z" />
<glyph unicode="R" horiz-adv-x="1374" d="M61 0h551v33h-110v659h104q43 0 77 -11t57.5 -41t35.5 -84t12 -140v-137q0 -86 19.5 -145.5t54.5 -95.5t84 -51.5t109 -15.5q86 0 165.5 45t127.5 150q4 8 6 14t2 13q0 12 -10 12t-25 -27q-35 -57 -65.5 -80.5t-55.5 -23.5q-49 0 -62.5 43.5t-13.5 109.5v170 q0 115 -76.5 201t-236.5 104q55 10 114.5 30t107.5 56.5t80 95t32 144.5q0 180 -119 267t-330 87h-635v-32h111v-1317h-111v-33zM502 725v625h76q39 0 83 -9.5t79.5 -42t59 -96t23.5 -172.5q0 -102 -23.5 -162.5t-59 -92.5t-79.5 -41t-83 -9h-76z" />
<glyph unicode="S" horiz-adv-x="1140" d="M117 20q0 -12 3 -22t13 -10q14 0 33 28l63 97q20 -20 50 -44t72 -44.5t98.5 -35t134.5 -14.5q121 0 211 40t149.5 105.5t89 149.5t29.5 172q0 188 -93 304t-276 151q-45 8 -110.5 23.5t-114.5 31.5q-63 23 -91 73t-28 126q0 41 14.5 81t43 70.5t71.5 49t101 18.5 q47 0 97 -13.5t97 -48t88 -98t68 -161.5q6 -29 18 -29q10 0 12 9t1 22v344q0 20 -11 20q-10 0 -20 -18l-53 -80q-43 29 -115 59.5t-182 30.5q-113 0 -198 -40t-142.5 -103.5t-87 -145.5t-29.5 -164q0 -145 69.5 -243.5t227.5 -143.5q37 -10 80 -20t85 -19.5t76.5 -17.5 t53.5 -14q96 -27 130 -80.5t34 -139.5q0 -41 -17.5 -87t-53.5 -84.5t-92.5 -65.5t-131.5 -27q-102 0 -175 37t-124.5 96.5t-84 133t-53.5 147.5q-8 29 -18 29q-6 0 -9 -6.5t-3 -26.5v-402z" />
<glyph unicode="T" horiz-adv-x="1232" d="M49 977h41q31 172 105.5 272.5t179.5 100.5h84v-1317h-111v-33h551v33h-111v1317h84q104 0 179 -100.5t106 -272.5h41l-31 362q-2 18 -13 30.5t-44 12.5h-981q-27 0 -37 -12t-12 -31z" />
<glyph unicode="U" horiz-adv-x="1280" d="M63 1350h111v-942q0 -109 37 -190t103.5 -135t159.5 -81t206 -27q221 0 334.5 110t113.5 331v829q0 53 35 79t76 26v32h-256v-32q43 0 76 -26t33 -79v-831q0 -94 -25 -165t-65.5 -118t-94 -70.5t-110.5 -23.5q-88 0 -144.5 22.5t-89.5 62.5t-46 95t-13 121v1012h110v32 h-551v-32z" />
<glyph unicode="V" horiz-adv-x="1292" d="M49 1350h109l440 -1370h166l354 1265q16 59 49 82t90 23v32h-290v-32q59 0 80.5 -23.5t21.5 -52.5q0 -8 -2 -18.5t-8 -32.5l-244 -873l-321 1000h108v32h-553v-32z" />
<glyph unicode="W" horiz-adv-x="1910" d="M49 1350h111l467 -1362h127l254 895l280 -895h123l328 1257q16 59 55 82t84 23v32h-291v-32q53 0 77 -28.5t24 -59.5v-11q0 -4 -5 -14l-217 -840l-313 953h111v32h-525v-32h99l135 -402l-158 -553l-323 955h102v32h-545v-32z" />
<glyph unicode="X" horiz-adv-x="1374" d="M70 0h290v33q-53 0 -69.5 18.5t-16.5 30.5q0 18 7.5 32.5t17.5 26.5l309 439l295 -547h-110v-33h557v33h-109l-432 798l266 379q31 45 55.5 72t46 42t43 20.5t50.5 5.5v32h-307v-32q49 0 67.5 -22.5t18.5 -45.5q0 -31 -21 -57l-246 -348l-254 473h111v32h-559v-32h110 l392 -721l-342 -492q-35 -51 -75 -77.5t-95 -26.5v-33z" />
<glyph unicode="Y" horiz-adv-x="1374" d="M43 1352h109l403 -746v-573h-111v-33h551v33h-110v626l278 566q12 25 26.5 47t35 39.5t50.5 28t75 10.5v32h-346v-32q70 0 95 -17.5t25 -46.5t-16 -61l-266 -541l-353 668h111v32h-557v-32z" />
<glyph unicode="Z" horiz-adv-x="1196" d="M90 0h1040v412h-36q-20 -104 -54 -176t-84.5 -116t-118 -63.5t-153.5 -19.5h-266l694 1296v49h-1012v-356h29q12 68 38 127t72 102t113.5 68t161.5 25h268l-692 -1297v-51z" />
<glyph unicode="[" horiz-adv-x="518" d="M94 -143h352v43h-131v1560h131v43h-352v-1646z" />
<glyph unicode="\" horiz-adv-x="638" d="M4 1487l561 -1620h99l-562 1620h-98z" />
<glyph unicode="]" horiz-adv-x="518" d="M92 -100v-43h352v1646h-352v-43h131v-1560h-131z" />
<glyph unicode="^" horiz-adv-x="714" d="M111 737q0 -25 14 -24q15 0 29 41q18 47 47.5 114.5t61.5 129t58.5 105.5t38.5 44t39 -44t58.5 -105.5t61.5 -129t48 -114.5q14 -41 29 -41q14 0 14 24q0 8 -4 29q-14 55 -37.5 131t-48 150.5t-45 134t-29.5 82.5q-14 37 -35.5 51t-50.5 14t-50 -14.5t-36 -50.5 q-8 -23 -28.5 -82.5t-45 -134t-48 -150.5t-37.5 -131q-4 -20 -4 -29z" />
<glyph unicode="_" horiz-adv-x="595" d="M0 -37v-41h614v41h-614z" />
<glyph unicode="`" horiz-adv-x="770" d="M154 1327l335 -334l33 19l-166 315h-202z" />
<glyph unicode="a" horiz-adv-x="1101" d="M39 248q0 -55 19.5 -105.5t58.5 -87.5t97 -58.5t136 -21.5q51 0 91 10.5t71 27t54.5 35t39.5 34.5q18 -43 73.5 -75t160.5 -32q74 0 116.5 16.5t66.5 39t31 49t7 49.5q0 16 -12 16q-14 0 -17 -18q-6 -31 -19.5 -53.5t-47.5 -22.5q-41 0 -52.5 27.5t-11.5 77.5v430 q0 86 -23.5 145.5t-75.5 96t-133 52t-198 15.5q-135 0 -223 -41t-88 -123q0 -59 33.5 -84.5t76.5 -25.5q35 0 56.5 11t34 26.5t16.5 34t4 30.5q0 51 -39 76q-14 8 -14 20q0 16 30.5 27.5t114.5 11.5q76 0 98.5 -41t22.5 -115v-163h-221q-84 0 -146.5 -26t-104.5 -66.5 t-62.5 -93t-20.5 -105.5zM354 250q0 113 36 182.5t120 69.5h84v-359q0 -18 -17.5 -37.5t-42 -35t-49 -25.5t-36.5 -10q-51 0 -73 50t-22 165z" />
<glyph unicode="b" horiz-adv-x="1144" d="M57 0h418v111q27 -47 81 -89t138 -42q100 0 176 38.5t126.5 103t76 147.5t25.5 169t-25.5 168t-76 146.5t-126 104.5t-176.5 40q-94 0 -145 -35t-74 -76v646l-418 -78v-33l111 20v-1308h-111v-33zM475 186v541q12 20 30.5 42t40 40t47 29.5t54.5 11.5q55 0 80 -61.5 t25 -227.5v-246q0 -90 -7.5 -144t-20.5 -84t-32.5 -39t-44.5 -9q-29 0 -54.5 15.5t-47 38t-40 48t-30.5 45.5z" />
<glyph unicode="c" horiz-adv-x="913" d="M27 436q0 -86 28.5 -169t87 -147.5t145.5 -104.5t204 -40q158 0 263 76t146 197q2 4 2 12q0 23 -18 23q-14 0 -21 -21q-16 -49 -49 -92t-78 -77t-99 -53.5t-112 -19.5q-53 0 -89 16.5t-58.5 55.5t-31.5 102.5t-9 159.5v164q0 94 9 158.5t30.5 105.5t55.5 59.5t85 18.5 q80 0 128 -20.5t48 -32.5q-45 -6 -76.5 -39t-31.5 -86q0 -47 33.5 -82t93.5 -35q63 0 96 39t33 92q0 31 -14.5 66t-52.5 65.5t-106.5 50t-176.5 19.5q-111 0 -197 -40t-146.5 -104.5t-91 -147.5t-30.5 -169z" />
<glyph unicode="d" horiz-adv-x="1144" d="M57 438q0 -86 26 -169t77 -147.5t128 -103t179 -38.5q78 0 132 44t85 87v-111h418v33h-111v1399l-416 -78v-33l109 20v-555q-25 47 -78 78t-139 31q-102 0 -179 -39t-128 -103.5t-77 -146.5t-26 -168zM410 336v205q0 90 5 149.5t17 94t31.5 49t50.5 14.5q57 0 99 -41 t71 -92v-529q-12 -23 -30.5 -48t-41 -47.5t-47 -37t-51.5 -14.5q-31 0 -51.5 10t-31.5 41t-16 89.5t-5 156.5z" />
<glyph unicode="e" horiz-adv-x="983" d="M29 436q0 -86 28.5 -169t87 -147.5t145.5 -104.5t204 -40q82 0 150.5 21.5t122.5 58.5t92 85t59 102q6 14 6 26q0 20 -15 21q-12 0 -18 -8.5t-17 -26.5q-23 -45 -56.5 -87t-80.5 -75t-107.5 -52.5t-135.5 -19.5q-31 0 -55.5 8.5t-42 31t-27 62.5t-9.5 101v283h601 q-8 55 -34 122.5t-78 127t-138 100.5t-217 41q-117 0 -204 -40t-145.5 -104.5t-87 -147.5t-28.5 -169zM360 545v151q0 164 132 164q127 0 126 -164v-151h-258z" />
<glyph unicode="f" horiz-adv-x="749" d="M59 0h529v33h-111v815h111v33h-111v131q0 41 -4 78.5t-8 70.5q-4 29 -8 53.5t-4 47.5q0 57 30.5 74.5t61.5 17.5q16 0 38.5 -4t22.5 -15q0 -8 -8 -10q-57 -14 -57 -80q0 -37 28.5 -62.5t69.5 -25.5q49 0 74.5 32t25.5 77q0 47 -49 86t-135 39q-106 0 -180 -37t-119 -97.5 t-65.5 -139.5t-20.5 -163v-73h-111v-33h111v-815h-111v-33z" />
<glyph unicode="g" horiz-adv-x="985" d="M37 -313q0 -45 23.5 -85t75.5 -69t135 -46t200 -17q90 0 166 23.5t130 65.5t84 100t30 130q0 106 -9.5 184t-51.5 130.5t-130 78t-244 25.5h-129q-45 0 -71.5 2t-39.5 8t-17.5 14.5t-4.5 20.5q0 20 13.5 34.5t38 23.5t58.5 16.5t73 15.5q20 -4 45.5 -7t44.5 -3 q72 0 137 19.5t116.5 56t81 89t29.5 117.5q0 92 -29.5 139.5t-52.5 65.5q10 16 33 37t51 35q-18 -23 -18 -45q0 -25 22.5 -43.5t63.5 -18.5q37 0 54.5 20.5t17.5 45.5q0 29 -16.5 52.5t-45.5 31.5q-23 6 -43 6q-47 0 -82 -26.5t-74 -67.5q-33 18 -86 34.5t-157 16.5 q-102 0 -174 -23.5t-116 -62.5t-64.5 -90t-20.5 -107q0 -59 22.5 -101t54.5 -71.5t68.5 -49t67.5 -34.5q-39 -6 -83 -18t-81 -39t-61.5 -70t-24.5 -112q0 -63 19.5 -102.5t47 -62t60.5 -32.5t57 -16q-29 -8 -63.5 -23.5t-63 -40t-48 -62.5t-19.5 -93zM156 -285 q0 66 37.5 121t95.5 72h182q119 0 187.5 -20.5t102.5 -48t42 -57.5t8 -50q0 -41 -24.5 -81t-68.5 -73t-107.5 -52.5t-139.5 -19.5q-88 0 -148.5 18.5t-97.5 47.5t-53 66.5t-16 76.5zM371 506v199q0 84 15 119.5t73 35.5q57 0 72.5 -36t15.5 -119v-199q0 -74 -15.5 -105.5 t-72.5 -31.5t-72.5 32.5t-15.5 104.5z" />
<glyph unicode="h" horiz-adv-x="1222" d="M59 0h529v33h-111v612q0 33 19.5 65.5t48 60.5t61.5 45.5t60 17.5q49 0 68.5 -25t19.5 -74v-702h-111v-33h528v33h-110v647q0 111 -75 164t-204 53q-66 0 -115 -13.5t-85.5 -33t-61.5 -43.5t-43 -47v672l-418 -78v-33l111 20v-1308h-111v-33z" />
<glyph unicode="i" horiz-adv-x="626" d="M55 0h529v33h-111v913l-418 -65v-35l111 18v-831h-111v-33zM154 1186q0 -68 47 -115t114 -47q68 0 115 47t47 115t-47 115t-115 47t-114.5 -47.5t-46.5 -114.5z" />
<glyph unicode="j" horiz-adv-x="550" d="M-121 -379q0 -70 57.5 -108.5t141.5 -38.5q94 0 169 32.5t127 92t79.5 143.5t27.5 186v1018l-418 -65v-33l111 16v-1233q0 -35 -11 -58.5t-27.5 -36.5t-38 -19t-40.5 -6q-33 0 -55 18q14 0 31.5 6t33 18.5t25.5 31t10 42.5q0 53 -31.5 81t-78.5 28q-43 0 -78 -32t-35 -83 zM154 1186q0 -68 47 -115t114 -47q68 0 115 47t47 115t-47 115t-115 47t-114.5 -47.5t-46.5 -114.5z" />
<glyph unicode="k" horiz-adv-x="1222" d="M57 0h529v33h-111v502h47l238 -502h-109v-33h545v33h-111l-335 669q35 37 63.5 66t58 47.5t63.5 27.5t77 9v29h-353v-29q57 0 80 -13.5t23 -39.5q0 -27 -11.5 -44.5t-27.5 -29.5l-201 -158h-47v865l-418 -78v-33l111 20v-1308h-111v-33z" />
<glyph unicode="l" horiz-adv-x="626" d="M55 0h529v33h-111v1399l-418 -78v-33l111 20v-1308h-111v-33z" />
<glyph unicode="m" horiz-adv-x="1734" d="M51 0h504v33h-88v571q0 37 13.5 80t38 80t57 60.5t71.5 23.5q45 0 65.5 -45t20.5 -172v-598h-88v-33h483v33h-88v569q0 43 16.5 88t42 80t57.5 57.5t63 22.5q55 0 71.5 -55.5t16.5 -173.5v-588h-88v-33h483v33h-88v567q0 143 -82 223t-238 80q-61 0 -104 -15.5t-73 -39 t-48 -51t-33 -49.5q-35 78 -105.5 115.5t-203.5 37.5q-55 0 -96 -12t-71 -31.5t-52.5 -46t-40.5 -57.5v174l-416 -70v-35l109 19v-809h-109v-33z" />
<glyph unicode="n" horiz-adv-x="1153" d="M31 0h506v33h-88v563q0 41 17 85t44 80t57.5 59.5t59.5 23.5q57 0 72.5 -45t15.5 -140v-626h-88v-33h506v33h-111v579q0 86 -25.5 143.5t-67.5 90.5t-98.5 46t-117.5 13q-53 0 -95.5 -14t-73 -37t-53 -53.5t-36.5 -61.5v191l-424 -72v-35l110 19v-809h-110v-33z" />
<glyph unicode="o" horiz-adv-x="987" d="M33 436q0 -86 28.5 -169t85 -147.5t143.5 -104.5t204 -40t203.5 40t143 104.5t85 147.5t28.5 169t-28.5 169t-85 147.5t-143.5 104.5t-203 40q-117 0 -204 -40t-143.5 -104.5t-85 -147.5t-28.5 -169zM350 352v160q0 82 4 147.5t18.5 109.5t43 67.5t78.5 23.5 q49 0 77.5 -23.5t43 -67.5t18.5 -109.5t4 -147.5v-160q0 -84 -4 -147.5t-18.5 -106.5t-43 -64.5t-77.5 -21.5t-78 21.5t-43.5 64.5t-18.5 106.5t-4 147.5z" />
<glyph unicode="p" horiz-adv-x="1144" d="M57 -518v-33h529v33h-111v606q33 -51 80 -82t139 -31q100 0 176 40t126.5 104.5t76 147.5t25.5 169t-25.5 169t-76 147.5t-126 104.5t-176.5 40q-88 0 -139 -40t-80 -93v164l-418 -70v-35l111 19v-1360h-111zM475 205v426q0 33 15.5 68.5t40 66.5t55 50.5t61.5 19.5 q25 0 44.5 -10.5t32.5 -43t20.5 -95t7.5 -169.5v-164q0 -98 -6.5 -161.5t-18.5 -99.5t-32.5 -50t-47.5 -14q-35 0 -65.5 18.5t-54 46t-38 57t-14.5 54.5z" />
<glyph unicode="q" horiz-adv-x="1144" d="M66 436q0 -86 24.5 -169t74.5 -147.5t126 -103.5t176 -39q51 0 86 9.5t58.5 25t40 36t32.5 40.5v-606h-111v-33h529v33h-111v1360l111 -19v35l-418 70v-164q-35 61 -89 96t-128 35q-100 0 -176 -40t-126 -104.5t-74.5 -146.5t-24.5 -168zM410 354v164q0 106 6 169 t19.5 95.5t32.5 43t46 10.5q33 0 64.5 -24t54 -56.5t37 -67.5t14.5 -55v-412q0 -29 -13.5 -62.5t-36 -63t-53 -50t-67.5 -20.5q-29 0 -48.5 14t-31.5 52t-18 101.5t-6 161.5z" />
<glyph unicode="r" horiz-adv-x="925" d="M49 0h529v33h-111v592q0 31 14.5 69.5t42 74.5t64.5 60.5t84 24.5q-23 -14 -47.5 -43t-24.5 -78q0 -59 39 -96t106 -37q53 0 98.5 34t45.5 103q0 80 -51.5 120t-139.5 40q-82 0 -141 -41t-90 -104v176l-418 -70v-35l111 19v-809h-111v-33z" />
<glyph unicode="s" horiz-adv-x="792" d="M55 2q0 -16 13 -16q8 0 14 6t10 14l41 57q39 -29 106.5 -58.5t157.5 -29.5t155.5 29t109 76t65 106.5t21.5 120.5q0 59 -14.5 112.5t-50.5 94.5t-96.5 64.5t-152.5 23.5q-111 0 -158 33t-47 92q0 49 44 91t139 42q35 0 71.5 -12t69.5 -34.5t56.5 -54.5t33.5 -73 q6 -31 21 -31q14 0 14 35v193q0 18 -10 18t-12.5 -4t-6.5 -8l-43 -51q-27 23 -76 41t-118 18q-92 0 -160 -26.5t-111 -69.5t-64.5 -98.5t-21.5 -112.5q0 -61 21.5 -116.5t62.5 -96.5t100.5 -64.5t137.5 -23.5q70 0 111.5 -13.5t63 -34t28 -45t6.5 -46.5q0 -51 -43 -94.5 t-146 -43.5q-111 0 -185.5 56.5t-115.5 189.5q-10 37 -24 37q-16 0 -17 -29v-264z" />
<glyph unicode="t" horiz-adv-x="782" d="M43 848h111v-488q0 -113 27.5 -186.5t75.5 -117.5t112.5 -62.5t136.5 -18.5q125 0 182 51.5t74 139.5v6q0 23 -19 23q-6 0 -12 -6.5t-8 -18.5q-10 -61 -46 -96t-83 -35q-78 0 -105.5 67.5t-27.5 221.5v520h153v33h-153v344h-29q-12 -78 -42 -136.5t-67.5 -99.5 t-81.5 -67.5t-87 -40.5h-111v-33z" />
<glyph unicode="u" horiz-adv-x="1177" d="M53 823l111 19v-533q0 -334 307 -334q109 0 169 49.5t91 112.5v-137h420v33h-109v895l-415 -70v-35l108 19v-539q0 -35 -14 -79t-38 -83t-55.5 -65.5t-66.5 -26.5q-51 0 -70.5 35t-19.5 125v719l-418 -70v-35z" />
<glyph unicode="v" horiz-adv-x="1046" d="M41 848h111l383 -848h69l307 768q18 45 48 62.5t77 17.5v33h-241v-33q45 0 64.5 -13.5t19.5 -29.5q0 -25 -7 -39l-172 -434l-235 516h110v33h-534v-33z" />
<glyph unicode="w" horiz-adv-x="1509" d="M57 848h84l402 -848h45l221 555l250 -555h47l266 784q10 29 30.5 46.5t70.5 17.5v33h-203v-33q41 0 55 -11.5t14 -23.5q0 -10 -1 -16t-3 -13l-149 -442l-232 506h72v33h-428v-33h72l116 -258l-96 -238l-239 496h67v33h-461v-33z" />
<glyph unicode="x" horiz-adv-x="987" d="M29 848h77l279 -481l-231 -269q-31 -39 -58.5 -52t-62.5 -13v-33h225v33q-43 0 -60.5 9t-17.5 26q0 10 4 16t13 16l206 238l177 -305h-78v-33h467v33h-78l-293 506l188 223q39 45 65 65.5t73 20.5v33h-240v-33q47 0 62.5 -14.5t15.5 -32.5q0 -23 -14 -39l-164 -199 l-168 285h78v33h-465v-33z" />
<glyph unicode="y" horiz-adv-x="1091" d="M37 848h108l441 -918q-10 -43 -24.5 -90t-41.5 -123q-33 -94 -72.5 -152.5t-115.5 -58.5q20 14 33.5 36t13.5 65q0 47 -33 83t-90 36t-95 -35t-38 -86q0 -70 49 -105t109 -35q59 0 100 11.5t69.5 37t51 66.5t45.5 103q14 41 28.5 87t27.5 90t25.5 83.5t22.5 68.5l289 756 q16 45 49 62.5t74 17.5v33h-242v-33q49 0 67.5 -15.5t18.5 -31.5q0 -20 -6 -33l-182 -477l-264 557h110v33h-528v-33z" />
<glyph unicode="z" horiz-adv-x="864" d="M31 0h786v268h-20q-16 -106 -77 -170.5t-179 -64.5h-195l451 796v52h-729v-246h20q10 106 77.5 159.5t151.5 53.5h177l-463 -803v-45z" />
<glyph unicode="{" horiz-adv-x="681" d="M70 649q25 -6 47 -12t39.5 -18.5t27 -33t9.5 -53.5v-348q0 -102 36.5 -170.5t90 -110.5t115 -60.5t110.5 -18.5h71q29 0 37.5 3t8.5 13t-8.5 13.5t-37.5 3.5h-59q-23 0 -44 12t-36.5 43t-25 81t-9.5 124v338q0 55 -20.5 87.5t-52 53t-68.5 32t-70 21.5q33 10 70 21.5 t68.5 32t52 53t20.5 88.5v358q0 74 9.5 124t25 81t37 43t43.5 12h59q29 0 37.5 3t8.5 14q0 10 -8.5 13t-37.5 3h-71q-49 0 -110.5 -18.5t-115 -60.5t-90 -110.5t-36.5 -170.5v-369q0 -35 -9.5 -54.5t-27 -31.5t-40 -18.5t-46.5 -12.5z" />
<glyph unicode="|" horiz-adv-x="397" d="M150 -31h110v1463h-110v-1463z" />
<glyph unicode="}" horiz-adv-x="681" d="M68 -160q0 -10 8 -13t37 -3h71q49 0 110.5 18.5t115 60.5t90.5 110.5t37 170.5v348q0 33 9 53.5t26.5 33t40 18.5t46.5 12q-25 6 -47 12.5t-39.5 18.5t-26.5 31.5t-9 54.5v369q0 102 -37 170.5t-90.5 110.5t-115 60.5t-110.5 18.5h-71q-29 0 -37 -3t-8 -13t8 -13.5 t37 -3.5h59q23 0 44.5 -12t36.5 -43t24.5 -81t9.5 -124v-358q0 -55 20.5 -88t52 -53.5t68.5 -32t70 -21.5q-33 -10 -70 -21.5t-68.5 -32t-52 -53t-20.5 -87.5v-338q0 -74 -9.5 -124t-24.5 -81t-36.5 -43t-44.5 -12h-59q-29 0 -37 -3.5t-8 -13.5z" />
<glyph unicode="~" horiz-adv-x="929" d="M63 711q0 -39 27 -39q23 0 29 30q4 37 33.5 59.5t72.5 22.5q41 0 77 -18t83 -37q68 -27 122 -37t116 -10q76 0 125 18.5t75.5 44t36.5 53t10 46.5q0 35 -24 35q-29 0 -33 -33q-2 -25 -17.5 -44.5t-74.5 -19.5q-41 0 -84 15.5t-84 31.5q-59 23 -118.5 37.5t-119.5 14.5 q-68 0 -114.5 -18.5t-77.5 -44t-45.5 -55.5t-14.5 -52z" />
<glyph unicode="&#xa1;" horiz-adv-x="573" d="M117 967q0 -68 48 -116t116 -48t115.5 48t47.5 116t-48 115.5t-115 47.5q-68 0 -116 -48t-48 -115zM137 -111q0 -92 32 -143t112 -51t111.5 51t31.5 143q0 43 -7 94.5t-18.5 105.5t-22.5 108.5t-20 101.5q-14 78 -23 175t-20 202h-65q-10 -104 -19.5 -201.5t-23.5 -175.5 q-8 -47 -19.5 -101.5t-22.5 -108.5t-18.5 -105.5t-7.5 -94.5z" />
<glyph unicode="&#xa2;" horiz-adv-x="864" d="M74 571q0 -74 23.5 -145.5t70.5 -127.5t116.5 -92t164.5 -38v-123h45v123q66 4 114.5 24.5t84.5 51t57.5 70.5t33.5 83q2 4 2 9v8q0 20 -12 20q-10 0 -16 -16q-25 -92 -86 -151.5t-178 -65.5v741q18 0 38.5 -4t38 -11t28.5 -16.5t11 -17.5q0 -6 -8 -12 q-12 -10 -20.5 -25.5t-8.5 -40.5q0 -41 25 -64.5t66 -23.5q43 0 61 27.5t18 58.5q0 33 -20.5 60.5t-54 48t-79.5 34t-95 15.5v102h-45v-102q-94 -4 -164 -39t-117 -91.5t-70.5 -126t-23.5 -143.5zM295 510v123q0 96 13.5 155.5t36 92t49 45t55.5 16.5v-741q-35 4 -63 19.5 t-48.5 50t-31.5 92t-11 147.5z" />
<glyph unicode="&#xa3;" horiz-adv-x="1144" d="M74 162q0 -68 43 -120t131 -52q96 0 142 31.5t73 89.5q47 -61 123 -97.5t159 -36.5q86 0 145.5 49.5t97.5 122t61.5 154.5t40.5 148v6q0 18 -15 18q-12 0 -18 -16q-35 -82 -69 -124t-64.5 -60.5t-56 -19.5t-44.5 -1q-49 0 -98 16.5t-95 40t-86 50t-67 47.5v294h162v37 h-162v340q0 74 22.5 125t59.5 84t83 47.5t91 14.5q76 0 134.5 -35t58.5 -92q-23 23 -64 22q-37 0 -68.5 -25.5t-31.5 -84.5q0 -63 40 -96t87 -33t86 33.5t39 103.5q0 139 -99.5 199.5t-269.5 60.5q-123 0 -225.5 -24.5t-175 -70.5t-112.5 -113t-40 -153q0 -88 37 -160.5 t78 -142.5h-123v-37h139q33 -55 76 -125.5t90 -150.5q-86 0 -146.5 -26.5t-98.5 -66.5t-54 -86t-16 -85zM117 160q0 49 29.5 80.5t78.5 31.5q57 0 111.5 -35.5t89.5 -95.5q-18 -51 -59 -80.5t-119 -29.5q-66 0 -98.5 41t-32.5 88z" />
<glyph unicode="&#xa5;" horiz-adv-x="1374" d="M49 1343h109l397 -735h-199v-33h199v-86h-199v-32h199v-424h-111v-33h551v33h-110v424h198v32h-198v86h198v33h-198v45l272 559q31 66 74 98.5t115 32.5v33h-326v-33q55 0 77.5 -17t22.5 -44q0 -26 -14 -55l-264 -545l-336 661h110v33h-567v-33z" />
<glyph unicode="&#xa6;" horiz-adv-x="303" d="M94 0h111v553h-111v-553zM94 772h111v608h-111v-608z" />
<glyph unicode="&#xa7;" horiz-adv-x="770" d="M80 1110q0 -94 45 -159.5t143 -92.5q-74 -16 -130 -83.5t-56 -180.5q0 -119 71.5 -201t225.5 -104q129 -20 186.5 -75.5t57.5 -127.5q0 -86 -64.5 -141.5t-181.5 -55.5q-49 0 -89 15.5t-67.5 35t-43 40t-15.5 30.5q0 6 1 8t11 2q35 0 55.5 20.5t20.5 51.5 q0 37 -20.5 55.5t-49.5 18.5q-37 0 -56.5 -27.5t-19.5 -66.5q0 -41 19.5 -80t55.5 -70t86 -50t112 -19q158 0 248 93t90 247q0 39 -7.5 77.5t-25.5 73.5t-49 63.5t-76 47.5q78 29 121 92t43 168q0 66 -18.5 123t-59.5 101t-106.5 76t-159.5 46q-96 14 -152.5 51t-56.5 109 q0 39 19.5 69.5t50 52t69.5 32.5t80 11q51 0 91 -9t65.5 -21.5t39 -23.5t13.5 -15q0 -2 -2 -2q-27 -2 -43 -24.5t-16 -51.5q0 -33 22.5 -50.5t52.5 -17.5q29 0 48.5 18.5t19.5 57.5q0 27 -14.5 57.5t-48 57.5t-90 44t-138.5 17q-72 0 -128 -26.5t-96 -69.5t-61.5 -99.5 t-21.5 -117.5zM170 690q0 70 44 104.5t110 49.5q43 -6 101 -23.5t111.5 -43t90.5 -59.5t37 -77q0 -57 -43 -103t-105 -69q-100 20 -166.5 44t-106.5 50.5t-56.5 58t-16.5 68.5z" />
<glyph unicode="&#xa8;" horiz-adv-x="831" d="M80 1182q0 -59 41 -100.5t100 -41.5t100 41.5t41 100.5t-40.5 100t-100.5 41q-59 0 -100 -41t-41 -100zM473 1182q0 -59 41 -100.5t100 -41.5t100.5 41.5t41.5 100.5t-41 100t-101 41q-59 0 -100 -41t-41 -100z" />
<glyph unicode="&#xa9;" horiz-adv-x="1267" d="M82 762q0 -117 45 -220.5t122 -180t180 -121.5t220 -45t220.5 45t180 121.5t122 180t45.5 220.5t-45.5 220t-122 180t-180 122t-220.5 45t-220 -45t-180 -122t-122 -180t-45 -220zM147 762q0 104 40 195.5t107.5 159t159 107.5t195.5 40t195.5 -40t159 -107.5t107.5 -159 t40 -195.5t-40 -195.5t-107.5 -159t-158.5 -107.5t-196 -40q-104 0 -195.5 40t-159 107.5t-107.5 159t-40 195.5zM391 791q0 -61 22.5 -114.5t58.5 -93.5t81 -63.5t92 -23.5q88 0 137 61l47 -49q4 -4 7 -4q6 0 6 6v164q0 8 -4 8q-8 0 -13 -10q-29 -66 -74.5 -107t-105.5 -41 q-74 0 -111.5 51.5t-37.5 167.5v93q0 219 153 219q127 0 168 -129q4 -8 8 -8q6 0 6 10v139q0 10 -6 10q-8 0 -12 -6l-33 -35q-27 23 -59.5 35t-71.5 12q-55 0 -102 -25.5t-82 -67.5t-54.5 -94t-19.5 -105z" />
<glyph unicode="&#xaa;" horiz-adv-x="749" d="M76 915q0 -68 46 -115.5t142 -47.5q61 0 97 21.5t57 41.5q10 -27 43 -45t96 -18q49 0 75.5 11t39 25.5t15.5 28.5t3 23v4q0 10 -6 10q-10 0 -10 -12q-4 -18 -11.5 -31.5t-29.5 -13.5q-25 0 -31 16t-6 47v258q0 104 -59.5 145.5t-200.5 41.5q-82 0 -134 -25t-52 -74 q0 -35 19 -51t46 -16q41 0 54.5 23.5t13.5 39.5q0 29 -25 45q-8 6 -8 13q0 10 18.5 17t69.5 7q45 0 58.5 -25.5t13.5 -68.5v-100h-134q-49 0 -86.5 -15.5t-63.5 -40t-38 -55.5t-12 -64zM86 616h596v41h-596v-41zM266 915q0 68 21.5 111t72.5 43h50v-217q0 -10 -10.5 -22.5 t-25 -21.5t-28.5 -15.5t-22 -6.5q-31 0 -44.5 31t-13.5 98z" />
<glyph unicode="&#xab;" horiz-adv-x="870" d="M31 551l346 -320h35l-248 320l248 319h-35zM362 551l347 -320h34l-247 320l247 319h-34z" />
<glyph unicode="&#xac;" horiz-adv-x="770" d="M100 686h557v41h-557v-41zM190 1284q1 -4 9 -4t12 2q25 4 60.5 16.5t60.5 24.5v-508h-51v-20h239v20h-51v598h-78q-35 -33 -83 -65.5t-103 -51.5q-14 -8 -15 -12zM197 174q0 -70 48 -123t150 -53t150.5 53t48.5 123q0 72 -52.5 116t-117.5 50q-6 0 -6 2l1 1t5 1 q66 8 111 41t45 94q0 33 -15.5 60.5t-41 48t-58.5 32t-70 11.5q-82 0 -134 -43t-52 -109q0 -61 49 -96t109 -39q4 0 5 -1l1 -1q0 -2 -6 -2q-72 -10 -121 -57t-49 -109zM346 119v121q0 29 7 60.5t42 31.5q37 0 44 -32t7 -60v-121q0 -45 -8 -73t-43 -28q-33 0 -41 28t-8 73z M346 444v76q0 31 8 60.5t41 29.5q35 0 42 -29.5t7 -60.5v-76q0 -39 -8 -65.5t-41 -26.5q-35 0 -42 28t-7 64z" />
<glyph unicode="&#xad;" horiz-adv-x="573" d="M109 584h366v65h-366v-65z" />
<glyph unicode="&#xae;" horiz-adv-x="892" d="M59 1014q0 -78 30 -146.5t81 -120t119.5 -81t146.5 -29.5t146.5 29.5t120 81t81 120t29.5 146.5t-29.5 146.5t-81 119.5t-120 81t-146.5 30t-146.5 -30t-119.5 -81t-81 -119.5t-30 -146.5zM104 1014q0 70 26 130t71 105t105.5 71t129.5 26q70 0 130.5 -26t105.5 -71 t70.5 -105.5t25.5 -129.5q0 -70 -25.5 -130.5t-70.5 -105.5t-105.5 -70.5t-130.5 -25.5t-130 25.5t-105 70.5t-71 105.5t-26 130.5zM262 799h176v20h-55v205h51q23 0 46.5 -17.5t29.5 -74.5q4 -35 5 -69t20 -54q10 -14 43 -14q23 0 43 7t26 13q2 2 2 4h-2h-4q-10 -8 -29 -8 q-20 0 -26 16q-4 12 -4 43t-4 56q-8 53 -35 71.5t-68 28.5q106 18 107 104q0 53 -39 81t-99 28h-184v-20h57v-400h-57v-20zM383 1044v175h63q76 0 76 -76v-25q0 -41 -19.5 -57.5t-56.5 -16.5h-63z" />
<glyph unicode="&#xaf;" horiz-adv-x="925" d="M172 1133h586v71h-586v-71z" />
<glyph unicode="&#xb0;" horiz-adv-x="509" d="M82 1229q0 -37 14.5 -69t38 -55.5t55 -37.5t68.5 -14t68.5 14t55.5 37.5t38 55.5t14 69t-14 68.5t-38 55t-55.5 38t-68.5 14.5t-68.5 -14.5t-55 -38t-38 -55t-14.5 -68.5zM117 1229q0 59 41 100t100 41t100 -41t41 -100t-41 -100.5t-100 -41.5t-100 41.5t-41 100.5z" />
<glyph unicode="&#xb1;" horiz-adv-x="694" d="M76 694h225v-221h68v221h247v66h-247v229h-68v-229h-225v-66zM135 330h412v67h-412v-67z" />
<glyph unicode="&#xb2;" horiz-adv-x="681" d="M127 1272q0 -41 19.5 -64.5t54.5 -23.5t56.5 20.5t21.5 55.5q0 39 -20.5 56t-55.5 17q-14 0 -27 -6q2 20 36 44t81 24q53 0 71.5 -32t18.5 -134q0 -66 -10.5 -106t-38.5 -72q-20 -23 -48 -53.5t-42 -41.5q-49 -43 -71.5 -82.5t-29.5 -62.5v-18h353l41 170q4 16 4 18 q0 6 -6 6t-13 -12q-10 -35 -29.5 -55.5t-66.5 -20.5h-203q29 29 64 46.5t90 41.5q72 33 110.5 93.5t38.5 136.5q0 59 -18.5 98t-49 62.5t-68.5 32.5t-75 9q-45 0 -79.5 -13t-59 -33.5t-37 -47.5t-12.5 -53z" />
<glyph unicode="&#xb3;" horiz-adv-x="651" d="M127 918q0 -45 45 -87.5t133 -42.5q104 0 160.5 45.5t56.5 139.5q0 39 -13 67.5t-35.5 48t-51.5 29.5t-57 15q63 4 105 41.5t42 99.5q0 68 -49 109.5t-154 41.5q-82 0 -124 -34.5t-42 -75.5q0 -35 21.5 -55.5t52.5 -20.5q35 0 55.5 20.5t20.5 53.5q0 25 -17.5 44 t-46.5 19h-10h-4q-4 0 -4 2q0 4 26.5 15.5t71.5 11.5q31 0 47.5 -26.5t16.5 -104.5q0 -72 -21.5 -101.5t-66.5 -29.5h-80q-14 0 -15 -8q0 -8 15 -9h80q53 0 75.5 -38.5t22.5 -114.5q0 -51 -5 -83t-15.5 -50.5t-25.5 -24.5t-36 -6q-53 0 -82 19.5t-29 27.5q0 2 3 2h2 q4 -2 7 -3t7 -1q25 0 45 16.5t20 51.5t-21.5 54t-49.5 19q-29 0 -52.5 -19.5t-23.5 -57.5z" />
<glyph unicode="&#xb4;" horiz-adv-x="704" d="M250 1012l33 -19l333 334h-202z" />
<glyph unicode="&#xb5;" horiz-adv-x="770" d="M111 684h557v41h-557v-41zM190 479q0 -41 19.5 -64.5t54.5 -23.5t56.5 20.5t21.5 55.5q0 39 -20.5 56.5t-55.5 17.5q-14 0 -26 -6q2 20 35.5 43.5t80.5 23.5q53 0 71.5 -31.5t18.5 -134.5q0 -66 -10 -105.5t-39 -72.5q-20 -23 -47.5 -53.5t-42.5 -40.5q-49 -43 -71.5 -83 t-28.5 -63v-18h352l41 170q4 16 4 18q0 6 -6 7q-6 0 -12 -13q-10 -35 -29.5 -55.5t-67.5 -20.5h-202q29 29 63.5 46.5t89.5 42.5q72 33 111 93t39 136q0 59 -18.5 98t-49 62.5t-68.5 33t-75 9.5q-45 0 -80 -13.5t-59.5 -34t-37 -47t-12.5 -53.5zM201 1284q0 -4 8 -4t12 2 q25 4 60.5 16.5t60.5 24.5v-508h-51v-20h239v20h-51v598h-78q-35 -33 -83 -65.5t-103 -51.5q-14 -8 -14 -12z" />
<glyph unicode="&#xb6;" horiz-adv-x="1288" d="M76 1008q0 -92 31.5 -163t87 -117t129 -69.5t157.5 -23.5h113v-856h166v1569h121v-1569h166v1569h176v32h-742q-84 0 -157.5 -23.5t-129 -69.5t-87 -116.5t-31.5 -162.5z" />
<glyph unicode="&#xb7;" horiz-adv-x="561" d="M117 731q0 -68 48 -116t116 -48t115.5 48t47.5 116t-48 116t-115 48q-68 0 -116 -48t-48 -116z" />
<glyph unicode="&#xb8;" horiz-adv-x="579" d="M141 -225q0 -8 9 -23q23 -35 56.5 -60.5t76.5 -25.5q61 0 98 33t37 82q0 27 -10.5 47t-25.5 35.5t-33 25t-30 13.5l19 98h-47l-25 -111q25 -8 46.5 -29.5t21.5 -60.5q0 -37 -24.5 -54t-55.5 -17q-23 0 -44.5 9t-37.5 30q-16 16 -25 16q-6 0 -6 -8z" />
<glyph unicode="&#xb9;" horiz-adv-x="583" d="M139 1284q0 -4 8 -4t13 2q25 4 60.5 16.5t60.5 24.5v-508h-52v-20h240v20h-51v598h-78q-35 -33 -83 -65.5t-103 -51.5q-14 -8 -15 -12z" />
<glyph unicode="&#xba;" horiz-adv-x="772" d="M86 616h596v41h-596v-41zM109 1026q0 -51 17 -100t51 -87t85 -61.5t121 -23.5t122 23.5t86 62.5t51 89t17 101t-16 100.5t-51 88t-87 62.5t-122 24q-68 0 -120 -24t-86 -63.5t-51 -90t-17 -101.5zM297 977v98q0 100 13.5 154.5t72.5 54.5t72.5 -54t13.5 -155v-98 q0 -100 -13.5 -151.5t-72.5 -51.5t-72.5 51.5t-13.5 151.5z" />
<glyph unicode="&#xbb;" horiz-adv-x="847" d="M88 231h35l346 320l-346 319h-35l250 -319zM430 231h35l346 320l-346 319h-35l248 -319z" />
<glyph unicode="&#xbc;" horiz-adv-x="770" d="M137 680h553v41h-553v-41zM195 172h206v-152h-49v-20h238v20h-51v152h86v55h-86v394h-93q-59 -94 -128.5 -209t-122.5 -219v-21zM225 1284q0 -4 8 -4t13 2q25 4 60.5 16.5t60.5 24.5v-508h-52v-20h240v20h-51v598h-78q-35 -33 -83 -65.5t-103 -51.5q-14 -8 -15 -12z M236 227q33 59 78.5 138t86.5 147v-285h-165z" />
<glyph unicode="&#xbd;" horiz-adv-x="770" d="M111 684h557v41h-557v-41zM190 479q0 -41 19.5 -64.5t54.5 -23.5t56.5 20.5t21.5 55.5q0 39 -20.5 56.5t-55.5 17.5q-14 0 -26 -6q2 20 35.5 43.5t80.5 23.5q53 0 71.5 -31.5t18.5 -134.5q0 -66 -10 -105.5t-39 -72.5q-20 -23 -47.5 -53.5t-42.5 -40.5q-49 -43 -71.5 -83 t-28.5 -63v-18h352l41 170q4 16 4 18q0 6 -6 7q-6 0 -12 -13q-10 -35 -29.5 -55.5t-67.5 -20.5h-202q29 29 63.5 46.5t89.5 42.5q72 33 111 93t39 136q0 59 -18.5 98t-49 62.5t-68.5 33t-75 9.5q-45 0 -80 -13.5t-59.5 -34t-37 -47t-12.5 -53.5zM201 1284q0 -4 8 -4t12 2 q25 4 60.5 16.5t60.5 24.5v-508h-51v-20h239v20h-51v598h-78q-35 -33 -83 -65.5t-103 -51.5q-14 -8 -14 -12z" />
<glyph unicode="&#xbe;" horiz-adv-x="770" d="M135 682h557v41h-557v-41zM195 172h206v-152h-49v-20h238v20h-51v152h86v55h-86v394h-93q-59 -94 -128.5 -209t-122.5 -219v-21zM213 918q0 -45 45 -87.5t133 -42.5q104 0 160.5 45.5t56.5 139.5q0 39 -13 67.5t-35.5 48t-51.5 29.5t-57 15q63 4 105 41.5t42 99.5 q0 68 -49 109.5t-154 41.5q-82 0 -124 -34.5t-42 -75.5q0 -35 21.5 -55.5t52.5 -20.5q35 0 55.5 20.5t20.5 53.5q0 25 -17.5 44t-46.5 19h-10h-4q-4 0 -4 2q0 4 26.5 15.5t71.5 11.5q31 0 47.5 -26.5t16.5 -104.5q0 -72 -21.5 -101.5t-66.5 -29.5h-80q-14 0 -15 -8 q0 -8 15 -9h80q53 0 75.5 -38.5t22.5 -114.5q0 -51 -5 -83t-15.5 -50.5t-25.5 -24.5t-36 -6q-53 0 -82 19.5t-29 27.5q0 2 3 2h2q4 -2 7 -3t7 -1q25 0 45 16.5t20 51.5t-21.5 54t-49.5 19q-29 0 -52.5 -19.5t-23.5 -57.5zM236 227q33 59 78.5 138t86.5 147v-285h-165z" />
<glyph unicode="&#xbf;" horiz-adv-x="815" d="M92 66q0 -186 89 -275.5t233 -89.5q86 0 146.5 19.5t97 49t54 66.5t17.5 72q0 49 -33.5 86t-93.5 37q-33 0 -55.5 -11.5t-37.5 -30t-22.5 -41t-7.5 -42.5q0 -43 29 -79t82 -36q8 0 8 -6q0 -10 -47 -28.5t-121 -18.5q-76 0 -113.5 44t-37.5 109q0 49 8 83t22.5 57.5 t32.5 40t39 30.5q25 18 50.5 39t46 48.5t33.5 64.5t13 90v326h-32v-76q0 -37 -23 -65.5t-58.5 -54t-79.5 -51.5t-87 -58q-61 -47 -106.5 -117.5t-45.5 -181.5zM326 928q0 -68 48 -116t115 -48q68 0 116 48t48 116t-48 116t-116 48t-115.5 -48t-47.5 -116z" />
<glyph unicode="&#xc0;" horiz-adv-x="1386" d="M70 0h309v33q-37 0 -59.5 7t-35 18.5t-16.5 24.5t-4 23q0 12 1 21.5t7 26.5l86 274h412l131 -395h-110v-33h550v33h-110l-451 1362h-141l-414 -1256q-14 -43 -52 -74.5t-103 -31.5v-33zM371 461l192 592l195 -592h-387zM385 1737l299 -301l31 16l-154 285h-176z" />
<glyph unicode="&#xc1;" horiz-adv-x="1386" d="M70 0h309v33q-37 0 -59.5 7t-35 18.5t-16.5 24.5t-4 23q0 12 1 21.5t7 26.5l86 274h412l131 -395h-110v-33h550v33h-110l-451 1362h-141l-414 -1256q-14 -43 -52 -74.5t-103 -31.5v-33zM371 461l192 592l195 -592h-387zM713 1452l30 -16l301 301h-176z" />
<glyph unicode="&#xc2;" horiz-adv-x="1386" d="M70 0h309v33q-37 0 -59.5 7t-35 18.5t-16.5 24.5t-4 23q0 12 1 21.5t7 26.5l86 274h412l131 -395h-110v-33h550v33h-110l-451 1362h-141l-414 -1256q-14 -43 -52 -74.5t-103 -31.5v-33zM371 461l192 592l195 -592h-387zM428 1421l14 -8l260 162l267 -162l12 8l-229 295 h-97z" />
<glyph unicode="&#xc3;" horiz-adv-x="1386" d="M70 0h309v33q-37 0 -59.5 7t-35 18.5t-16.5 24.5t-4 23q0 12 1 21.5t7 26.5l86 274h412l131 -395h-110v-33h550v33h-110l-451 1362h-141l-414 -1256q-14 -43 -52 -74.5t-103 -31.5v-33zM360 1530q0 -35 23 -35q20 0 20 29q4 33 29 53t62 20q31 0 60.5 -17t70.5 -34 q55 -23 99 -32t93 -9q63 0 102 16.5t62 39t31 47t8 43.5q0 31 -21 30q-20 0 -24 -28q-2 -23 -15.5 -40.5t-60.5 -17.5q-35 0 -69.5 13.5t-69.5 27.5q-47 20 -96.5 33.5t-96.5 13.5q-55 0 -94 -16t-63.5 -39.5t-37 -50.5t-12.5 -47zM371 461l192 592l195 -592h-387z" />
<glyph unicode="&#xc4;" horiz-adv-x="1386" d="M70 0h309v33q-37 0 -59.5 7t-35 18.5t-16.5 24.5t-4 23q0 12 1 21.5t7 26.5l86 274h412l131 -395h-110v-33h550v33h-110l-451 1362h-141l-414 -1256q-14 -43 -52 -74.5t-103 -31.5v-33zM371 461l192 592l195 -592h-387zM399 1620q0 -53 37 -90t90 -37t90 37t37 90 t-36.5 90t-90.5 37q-53 0 -90 -37t-37 -90zM760 1620q0 -53 37 -90t90 -37t90 37t37 90t-37 90t-90 37t-90 -37t-37 -90z" />
<glyph unicode="&#xc5;" horiz-adv-x="1386" d="M70 0h309v33q-37 0 -59.5 7t-35 18.5t-16.5 24.5t-4 23q0 12 1 21.5t7 26.5l86 274h412l131 -395h-110v-33h550v33h-110l-451 1362h-141l-414 -1256q-14 -43 -52 -74.5t-103 -31.5v-33zM371 461l192 592l195 -592h-387zM532 1614q0 -37 14.5 -69t38 -55.5t55.5 -37.5 t69 -14t68.5 14t55 37.5t38 55.5t14.5 69t-14.5 68.5t-38 55t-55.5 38t-68 14.5q-37 0 -69 -14.5t-55.5 -38t-38 -55t-14.5 -68.5zM567 1614q0 59 41 100t101 41q59 0 100 -41t41 -100t-41 -100t-100 -41t-100.5 41t-41.5 100z" />
<glyph unicode="&#xc6;" horiz-adv-x="1882" d="M61 0h310v33q-53 0 -79 16.5t-26 32.5q0 37 19 68l247 434h394v-551h-170v-33h1030q35 0 46 16.5t11 44.5v336q0 33 -20 33t-27 -33q-16 -76 -34.5 -142.5t-55.5 -115.5t-97.5 -77.5t-158.5 -28.5h-195v676h125q78 0 120 -51.5t52 -155.5q2 -37 21 -37q20 0 20 37v446 q0 37 -20 37q-18 0 -21 -37q-10 -102 -52 -154.5t-120 -52.5h-125v609h158q80 0 140.5 -29t102.5 -75t63.5 -103.5t25.5 -114.5q0 -27 20 -27t21 27l-17 297q-2 33 -17 45t-42 12h-956v-32h176l-694 -1207q-31 -55 -76 -82.5t-99 -27.5v-33zM551 616l375 650v-650h-375z" />
<glyph unicode="&#xc7;" horiz-adv-x="1277" d="M45 690q0 -131 41 -257t122 -225t204 -162.5t286 -70.5l-20 -84q23 -10 46.5 -31.5t23.5 -60.5t-26 -56t-56 -17q-51 0 -84 38q-16 18 -25 19q-6 0 -6 -8q0 -10 8 -25q23 -35 56.5 -61.5t78.5 -26.5q63 0 100 34t37 85q0 27 -10 48t-25.5 36.5t-33 25t-31.5 13.5l17 71 q74 2 130 20.5t98 42t68.5 49.5t40.5 44l82 -117q14 -20 25 -20q10 0 10 22v467q0 27 -16 27q-14 0 -21 -27q-6 -33 -18 -81t-32.5 -100t-52.5 -104.5t-79 -93.5t-109.5 -66.5t-146.5 -25.5q-76 0 -130 22.5t-90 85t-52.5 175.5t-16.5 293v205q0 182 12.5 295.5t45 176 t92 84t155.5 21.5q76 0 135.5 -25.5t107.5 -74.5t85 -119t68 -158q6 -20 22 -20q14 0 15 20v363q0 33 -25 33q-16 0 -31 -19l-78 -78q-47 47 -121.5 81t-191.5 34q-172 0 -300 -61.5t-213 -162t-128 -229.5t-43 -264z" />
<glyph unicode="&#xc8;" horiz-adv-x="1161" d="M61 0h973q33 0 44.5 16.5t11.5 44.5v336q0 33 -21 33q-20 0 -27 -33q-16 -76 -34.5 -142.5t-55.5 -115.5t-97 -77.5t-159 -28.5h-194v676h125q78 0 119.5 -51.5t52.5 -155.5q2 -37 20 -37q20 0 21 37v446q0 37 -21 37q-18 0 -20 -37q-10 -102 -52 -154.5t-120 -52.5h-125 v609h157q80 0 140.5 -29t102.5 -75t63.5 -103.5t25.5 -114.5q0 -27 21 -27q20 0 20 27l-16 297q-2 33 -18.5 45t-47.5 12h-889v-32h111v-1317h-111v-33zM305 1737l301 -301l31 16l-156 285h-176z" />
<glyph unicode="&#xc9;" horiz-adv-x="1161" d="M61 0h973q33 0 44.5 16.5t11.5 44.5v336q0 33 -21 33q-20 0 -27 -33q-16 -76 -34.5 -142.5t-55.5 -115.5t-97 -77.5t-159 -28.5h-194v676h125q78 0 119.5 -51.5t52.5 -155.5q2 -37 20 -37q20 0 21 37v446q0 37 -21 37q-18 0 -20 -37q-10 -102 -52 -154.5t-120 -52.5h-125 v609h157q80 0 140.5 -29t102.5 -75t63.5 -103.5t25.5 -114.5q0 -27 21 -27q20 0 20 27l-16 297q-2 33 -18.5 45t-47.5 12h-889v-32h111v-1317h-111v-33zM522 1452l31 -16l299 301h-176z" />
<glyph unicode="&#xca;" horiz-adv-x="1161" d="M61 0h973q33 0 44.5 16.5t11.5 44.5v336q0 33 -21 33q-20 0 -27 -33q-16 -76 -34.5 -142.5t-55.5 -115.5t-97 -77.5t-159 -28.5h-194v676h125q78 0 119.5 -51.5t52.5 -155.5q2 -37 20 -37q20 0 21 37v446q0 37 -21 37q-18 0 -20 -37q-10 -102 -52 -154.5t-120 -52.5h-125 v609h157q80 0 140.5 -29t102.5 -75t63.5 -103.5t25.5 -114.5q0 -27 21 -27q20 0 20 27l-16 297q-2 33 -18.5 45t-47.5 12h-889v-32h111v-1317h-111v-33zM319 1452l13 -8l262 162l264 -162l14 8l-229 295h-96z" />
<glyph unicode="&#xcb;" horiz-adv-x="1161" d="M61 0h973q33 0 44.5 16.5t11.5 44.5v336q0 33 -21 33q-20 0 -27 -33q-16 -76 -34.5 -142.5t-55.5 -115.5t-97 -77.5t-159 -28.5h-194v676h125q78 0 119.5 -51.5t52.5 -155.5q2 -37 20 -37q20 0 21 37v446q0 37 -21 37q-18 0 -20 -37q-10 -102 -52 -154.5t-120 -52.5h-125 v609h157q80 0 140.5 -29t102.5 -75t63.5 -103.5t25.5 -114.5q0 -27 21 -27q20 0 20 27l-16 297q-2 33 -18.5 45t-47.5 12h-889v-32h111v-1317h-111v-33zM289 1620q0 -53 36.5 -90t90.5 -37q53 0 90 37t37 90t-37 90t-90 37t-90 -37t-37 -90zM649 1620q0 -53 37 -90t90 -37 t90 37t37 90t-37 90t-90 37t-90 -37t-37 -90z" />
<glyph unicode="&#xcc;" horiz-adv-x="720" d="M51 1737l299 -301l31 16l-154 285h-176zM86 0h551v33h-111v1317h111v32h-551v-32h111v-1317h-111v-33z" />
<glyph unicode="&#xcd;" horiz-adv-x="720" d="M86 0h551v33h-111v1317h111v32h-551v-32h111v-1317h-111v-33zM356 1452l31 -16l299 301h-176z" />
<glyph unicode="&#xce;" horiz-adv-x="720" d="M82 1452l12 -8l262 162l265 -162l14 8l-229 295h-97zM86 0h551v33h-111v1317h111v32h-551v-32h111v-1317h-111v-33z" />
<glyph unicode="&#xcf;" horiz-adv-x="720" d="M49 1620q0 -53 37 -90t90 -37t90 37t37 90t-37 90t-90 37t-90 -37t-37 -90zM86 0h551v33h-111v1317h111v32h-551v-32h111v-1317h-111v-33zM410 1620q0 -53 36.5 -90t90.5 -37q53 0 90 37t37 90t-37 90t-90 37t-90 -37t-37 -90z" />
<glyph unicode="&#xd0;" horiz-adv-x="1277" d="M63 686h113v-653h-110v-33h596q143 0 249.5 59.5t177 156.5t106.5 222t36 254t-36 253t-106.5 221.5t-177 156.5t-249.5 59h-596v-32h110v-623h-113v-41zM506 33v653h160v41h-160v623h104q55 0 103.5 -26t83 -93.5t55 -186t20.5 -303.5v-98q0 -190 -20.5 -309t-55 -186.5 t-80.5 -91t-100 -23.5h-110z" />
<glyph unicode="&#xd1;" horiz-adv-x="1247" d="M66 1331l129 -157v-1035q0 -53 -34 -79.5t-77 -26.5v-33h256v33q-41 0 -76 26.5t-35 79.5v985l791 -1140h70v1263q0 51 34.5 77t75.5 26v32h-256v-32q43 0 77 -27t34 -80v-713l-590 852h-399v-51zM299 1530q0 -35 23 -35q20 0 20 29q4 33 28.5 53t61.5 20q31 0 60.5 -17 t70.5 -34q55 -23 99.5 -32t93.5 -9q63 0 102 16.5t61.5 39t30.5 47t8 43.5q0 31 -20 30q-20 0 -25 -28q-2 -23 -15 -40.5t-60 -17.5q-35 0 -70 13.5t-70 27.5q-47 20 -96 33.5t-96 13.5q-55 0 -94 -16t-63.5 -39.5t-37 -50.5t-12.5 -47z" />
<glyph unicode="&#xd2;" horiz-adv-x="1445" d="M72 692q0 -135 42 -263t125 -229.5t205.5 -163t284.5 -61.5t285 61.5t206 163t124.5 229.5t41.5 263q0 133 -41.5 262t-124.5 229.5t-206 162t-285 61.5t-284.5 -61.5t-205.5 -162t-125 -229.5t-42 -262zM434 1737l299 -301l31 16l-154 285h-176zM465 590v205 q0 154 9 262t37 178t80 102.5t138 32.5t138.5 -32.5t80 -102.5t36.5 -178.5t9 -261.5v-205q0 -170 -9 -281.5t-36.5 -177t-80 -92.5t-138.5 -27t-138 27t-80 92.5t-37 177t-9 281.5z" />
<glyph unicode="&#xd3;" horiz-adv-x="1445" d="M72 692q0 -135 42 -263t125 -229.5t205.5 -163t284.5 -61.5t285 61.5t206 163t124.5 229.5t41.5 263q0 133 -41.5 262t-124.5 229.5t-206 162t-285 61.5t-284.5 -61.5t-205.5 -162t-125 -229.5t-42 -262zM465 590v205q0 154 9 262t37 178t80 102.5t138 32.5t138.5 -32.5 t80 -102.5t36.5 -178.5t9 -261.5v-205q0 -170 -9 -281.5t-36.5 -177t-80 -92.5t-138.5 -27t-138 27t-80 92.5t-37 177t-9 281.5zM696 1452l31 -16l299 301h-176z" />
<glyph unicode="&#xd4;" horiz-adv-x="1445" d="M72 692q0 -135 42 -263t125 -229.5t205.5 -163t284.5 -61.5t285 61.5t206 163t124.5 229.5t41.5 263q0 133 -41.5 262t-124.5 229.5t-206 162t-285 61.5t-284.5 -61.5t-205.5 -162t-125 -229.5t-42 -262zM457 1452l12 -8l262 162l264 -162l15 8l-230 295h-96zM465 590 v205q0 154 9 262t37 178t80 102.5t138 32.5t138.5 -32.5t80 -102.5t36.5 -178.5t9 -261.5v-205q0 -170 -9 -281.5t-36.5 -177t-80 -92.5t-138.5 -27t-138 27t-80 92.5t-37 177t-9 281.5z" />
<glyph unicode="&#xd5;" horiz-adv-x="1445" d="M72 692q0 -135 42 -263t125 -229.5t205.5 -163t284.5 -61.5t285 61.5t206 163t124.5 229.5t41.5 263q0 133 -41.5 262t-124.5 229.5t-206 162t-285 61.5t-284.5 -61.5t-205.5 -162t-125 -229.5t-42 -262zM381 1530q0 -35 22 -35q20 0 21 29q4 33 28.5 53t61.5 20 q31 0 60.5 -17t70.5 -34q55 -23 99 -32t94 -9q63 0 102 16.5t61.5 39t30.5 47t8 43.5q0 31 -20 30q-20 0 -25 -28q-2 -23 -15 -40.5t-60 -17.5q-35 0 -70 13.5t-70 27.5q-47 20 -96 33.5t-96 13.5q-55 0 -94 -16t-63.5 -39.5t-37 -50.5t-12.5 -47zM465 590v205q0 154 9 262 t37 178t80 102.5t138 32.5t138.5 -32.5t80 -102.5t36.5 -178.5t9 -261.5v-205q0 -170 -9 -281.5t-36.5 -177t-80 -92.5t-138.5 -27t-138 27t-80 92.5t-37 177t-9 281.5z" />
<glyph unicode="&#xd6;" horiz-adv-x="1445" d="M72 692q0 -135 42 -263t125 -229.5t205.5 -163t284.5 -61.5t285 61.5t206 163t124.5 229.5t41.5 263q0 133 -41.5 262t-124.5 229.5t-206 162t-285 61.5t-284.5 -61.5t-205.5 -162t-125 -229.5t-42 -262zM410 1620q0 -53 36.5 -90t90.5 -37q53 0 90 37t37 90t-37 90 t-90 37t-90 -37t-37 -90zM465 590v205q0 154 9 262t37 178t80 102.5t138 32.5t138.5 -32.5t80 -102.5t36.5 -178.5t9 -261.5v-205q0 -170 -9 -281.5t-36.5 -177t-80 -92.5t-138.5 -27t-138 27t-80 92.5t-37 177t-9 281.5zM770 1620q0 -53 37 -90t90 -37t90 37t37 90t-37 90 t-90 37t-90 -37t-37 -90z" />
<glyph unicode="&#xd7;" horiz-adv-x="1155" d="M78 115l98 -99l402 404l403 -404l98 99l-403 403l403 402l-98 98l-403 -404l-402 404l-98 -98l401 -402z" />
<glyph unicode="&#xd8;" horiz-adv-x="1445" d="M72 692q0 -96 21.5 -190t64.5 -178t106.5 -154t147.5 -117l-86 -211l32 -16l86 211q61 -29 132 -45.5t153 -16.5q162 0 285 61.5t206 163t124.5 229.5t41.5 263q0 104 -25.5 205.5t-75.5 191t-126 159t-174 110.5l62 151l-37 17l-62 -154q-100 35 -219 35 q-162 0 -284.5 -61.5t-205.5 -162t-125 -229.5t-42 -262zM465 590v205q0 154 9 262t37 178t80 102.5t138 32.5q129 0 186 -76l-432 -1063q-10 66 -14 154t-4 205zM498 168l442 1083q33 -70 43 -182.5t10 -273.5v-205q0 -170 -9 -281.5t-36.5 -177t-80 -92.5t-138.5 -27 q-98 0 -151.5 34t-79.5 122z" />
<glyph unicode="&#xd9;" horiz-adv-x="1280" d="M63 1350h111v-942q0 -109 37 -190t103.5 -135t159.5 -81t206 -27q221 0 334.5 110t113.5 331v829q0 53 35 79t76 26v32h-256v-32q43 0 76 -26t33 -79v-831q0 -94 -25 -165t-65.5 -118t-94 -70.5t-110.5 -23.5q-88 0 -144.5 22.5t-89.5 62.5t-46 95t-13 121v1012h110v32 h-551v-32zM418 1737l301 -301l31 16l-156 285h-176z" />
<glyph unicode="&#xda;" horiz-adv-x="1280" d="M63 1350h111v-942q0 -109 37 -190t103.5 -135t159.5 -81t206 -27q221 0 334.5 110t113.5 331v829q0 53 35 79t76 26v32h-256v-32q43 0 76 -26t33 -79v-831q0 -94 -25 -165t-65.5 -118t-94 -70.5t-110.5 -23.5q-88 0 -144.5 22.5t-89.5 62.5t-46 95t-13 121v1012h110v32 h-551v-32zM674 1452l31 -16l299 301h-177z" />
<glyph unicode="&#xdb;" horiz-adv-x="1280" d="M63 1350h111v-942q0 -109 37 -190t103.5 -135t159.5 -81t206 -27q221 0 334.5 110t113.5 331v829q0 53 35 79t76 26v32h-256v-32q43 0 76 -26t33 -79v-831q0 -94 -25 -165t-65.5 -118t-94 -70.5t-110.5 -23.5q-88 0 -144.5 22.5t-89.5 62.5t-46 95t-13 121v1012h110v32 h-551v-32zM432 1452l12 -8l263 162l264 -162l14 8l-229 295h-97z" />
<glyph unicode="&#xdc;" horiz-adv-x="1280" d="M63 1350h111v-942q0 -109 37 -190t103.5 -135t159.5 -81t206 -27q221 0 334.5 110t113.5 331v829q0 53 35 79t76 26v32h-256v-32q43 0 76 -26t33 -79v-831q0 -94 -25 -165t-65.5 -118t-94 -70.5t-110.5 -23.5q-88 0 -144.5 22.5t-89.5 62.5t-46 95t-13 121v1012h110v32 h-551v-32zM383 1620q0 -53 37 -90t90 -37t90 37t37 90t-37 90t-90 37t-90 -37t-37 -90zM743 1620q0 -53 37 -90t90 -37t90 37t37 90t-36.5 90t-90.5 37q-53 0 -90 -37t-37 -90z" />
<glyph unicode="&#xdd;" horiz-adv-x="1374" d="M43 1352h109l403 -746v-573h-111v-33h551v33h-110v626l278 566q12 25 26.5 47t35 39.5t50.5 28t75 10.5v32h-346v-32q70 0 95 -17.5t25 -46.5t-16 -61l-266 -541l-353 668h111v32h-557v-32zM748 1452l30 -16l299 301h-176z" />
<glyph unicode="&#xde;" horiz-adv-x="1189" d="M66 0h550v33h-110v325h201q88 0 165.5 19.5t136 62.5t93.5 113t35 170t-35 172t-93.5 118t-136 68.5t-165.5 22.5h-201v246h110v32h-550v-32h110v-1317h-110v-33zM506 391v680h55q72 0 119 -23.5t75.5 -67.5t41 -109.5t12.5 -147.5q0 -160 -49 -246t-180 -86h-74z" />
<glyph unicode="&#xdf;" horiz-adv-x="1198" d="M43 0h528v33h-110v1038q0 84 15.5 136.5t42 82t62 39.5t78.5 10q123 0 189.5 -74.5t66.5 -205.5q0 -57 -16 -108.5t-43 -97.5t-62.5 -90t-72.5 -85q-55 -61 -55 -105q0 -43 57 -61q51 -16 110.5 -53t109.5 -83t84 -97.5t34 -96.5q0 -37 -16.5 -67.5t-44 -53t-65.5 -36 t-81 -13.5q-59 0 -90 15q-14 6 -14 12q0 8 4 8q23 4 41 21.5t18 58.5q0 39 -22.5 58.5t-51.5 19.5t-54.5 -22.5t-25.5 -67.5q0 -74 51.5 -107t129.5 -33q74 0 129 20.5t92 68t55.5 124t18.5 189.5q0 49 -4.5 96t-29 93t-78.5 90t-155 83q-18 6 -18 21q0 8 14 31 q31 47 59.5 109.5t28.5 158.5q0 152 -73.5 234.5t-219.5 82.5q-262 0 -383.5 -106.5t-121.5 -315.5v-151h-111v-33h111v-737h-111v-33z" />
<glyph unicode="&#xe0;" horiz-adv-x="1101" d="M39 248q0 -55 19.5 -105.5t58.5 -87.5t97 -58.5t136 -21.5q51 0 91 10.5t71 27t54.5 35t39.5 34.5q18 -43 73.5 -75t160.5 -32q74 0 116.5 16.5t66.5 39t31 49t7 49.5q0 16 -12 16q-14 0 -17 -18q-6 -31 -19.5 -53.5t-47.5 -22.5q-41 0 -52.5 27.5t-11.5 77.5v430 q0 86 -23.5 145.5t-75.5 96t-133 52t-198 15.5q-135 0 -223 -41t-88 -123q0 -59 33.5 -84.5t76.5 -25.5q35 0 56.5 11t34 26.5t16.5 34t4 30.5q0 51 -39 76q-14 8 -14 20q0 16 30.5 27.5t114.5 11.5q76 0 98.5 -41t22.5 -115v-163h-221q-84 0 -146.5 -26t-104.5 -66.5 t-62.5 -93t-20.5 -105.5zM180 1327l336 -334l33 19l-166 315h-203zM354 250q0 113 36 182.5t120 69.5h84v-359q0 -18 -17.5 -37.5t-42 -35t-49 -25.5t-36.5 -10q-51 0 -73 50t-22 165z" />
<glyph unicode="&#xe1;" horiz-adv-x="1101" d="M39 248q0 -55 19.5 -105.5t58.5 -87.5t97 -58.5t136 -21.5q51 0 91 10.5t71 27t54.5 35t39.5 34.5q18 -43 73.5 -75t160.5 -32q74 0 116.5 16.5t66.5 39t31 49t7 49.5q0 16 -12 16q-14 0 -17 -18q-6 -31 -19.5 -53.5t-47.5 -22.5q-41 0 -52.5 27.5t-11.5 77.5v430 q0 86 -23.5 145.5t-75.5 96t-133 52t-198 15.5q-135 0 -223 -41t-88 -123q0 -59 33.5 -84.5t76.5 -25.5q35 0 56.5 11t34 26.5t16.5 34t4 30.5q0 51 -39 76q-14 8 -14 20q0 16 30.5 27.5t114.5 11.5q76 0 98.5 -41t22.5 -115v-163h-221q-84 0 -146.5 -26t-104.5 -66.5 t-62.5 -93t-20.5 -105.5zM354 250q0 113 36 182.5t120 69.5h84v-359q0 -18 -17.5 -37.5t-42 -35t-49 -25.5t-36.5 -10q-51 0 -73 50t-22 165zM387 1012l33 -19l336 334h-203z" />
<glyph unicode="&#xe2;" horiz-adv-x="1101" d="M39 248q0 -55 19.5 -105.5t58.5 -87.5t97 -58.5t136 -21.5q51 0 91 10.5t71 27t54.5 35t39.5 34.5q18 -43 73.5 -75t160.5 -32q74 0 116.5 16.5t66.5 39t31 49t7 49.5q0 16 -12 16q-14 0 -17 -18q-6 -31 -19.5 -53.5t-47.5 -22.5q-41 0 -52.5 27.5t-11.5 77.5v430 q0 86 -23.5 145.5t-75.5 96t-133 52t-198 15.5q-135 0 -223 -41t-88 -123q0 -59 33.5 -84.5t76.5 -25.5q35 0 56.5 11t34 26.5t16.5 34t4 30.5q0 51 -39 76q-14 8 -14 20q0 16 30.5 27.5t114.5 11.5q76 0 98.5 -41t22.5 -115v-163h-221q-84 0 -146.5 -26t-104.5 -66.5 t-62.5 -93t-20.5 -105.5zM205 1030l12 -6l262 162l264 -162l15 6l-230 295h-96zM354 250q0 113 36 182.5t120 69.5h84v-359q0 -18 -17.5 -37.5t-42 -35t-49 -25.5t-36.5 -10q-51 0 -73 50t-22 165z" />
<glyph unicode="&#xe3;" horiz-adv-x="1101" d="M39 248q0 -55 19.5 -105.5t58.5 -87.5t97 -58.5t136 -21.5q51 0 91 10.5t71 27t54.5 35t39.5 34.5q18 -43 73.5 -75t160.5 -32q74 0 116.5 16.5t66.5 39t31 49t7 49.5q0 16 -12 16q-14 0 -17 -18q-6 -31 -19.5 -53.5t-47.5 -22.5q-41 0 -52.5 27.5t-11.5 77.5v430 q0 86 -23.5 145.5t-75.5 96t-133 52t-198 15.5q-135 0 -223 -41t-88 -123q0 -59 33.5 -84.5t76.5 -25.5q35 0 56.5 11t34 26.5t16.5 34t4 30.5q0 51 -39 76q-14 8 -14 20q0 16 30.5 27.5t114.5 11.5q76 0 98.5 -41t22.5 -115v-163h-221q-84 0 -146.5 -26t-104.5 -66.5 t-62.5 -93t-20.5 -105.5zM164 1112q0 -35 22 -35q20 0 21 29q4 33 28.5 53.5t61.5 20.5q31 0 60.5 -17.5t70.5 -34.5q55 -23 99 -32t94 -9q63 0 102 16.5t61.5 39t30.5 47t8 43.5q0 31 -20 31t-25 -29q-2 -23 -15 -40t-61 -17q-35 0 -69.5 13.5t-69.5 27.5q-47 20 -96 33.5 t-96 13.5q-55 0 -94 -16.5t-64 -40t-37 -50t-12 -47.5zM354 250q0 113 36 182.5t120 69.5h84v-359q0 -18 -17.5 -37.5t-42 -35t-49 -25.5t-36.5 -10q-51 0 -73 50t-22 165z" />
<glyph unicode="&#xe4;" horiz-adv-x="1101" d="M39 248q0 -55 19.5 -105.5t58.5 -87.5t97 -58.5t136 -21.5q51 0 91 10.5t71 27t54.5 35t39.5 34.5q18 -43 73.5 -75t160.5 -32q74 0 116.5 16.5t66.5 39t31 49t7 49.5q0 16 -12 16q-14 0 -17 -18q-6 -31 -19.5 -53.5t-47.5 -22.5q-41 0 -52.5 27.5t-11.5 77.5v430 q0 86 -23.5 145.5t-75.5 96t-133 52t-198 15.5q-135 0 -223 -41t-88 -123q0 -59 33.5 -84.5t76.5 -25.5q35 0 56.5 11t34 26.5t16.5 34t4 30.5q0 51 -39 76q-14 8 -14 20q0 16 30.5 27.5t114.5 11.5q76 0 98.5 -41t22.5 -115v-163h-221q-84 0 -146.5 -26t-104.5 -66.5 t-62.5 -93t-20.5 -105.5zM168 1182q0 -59 41 -100.5t100 -41.5t100.5 41.5t41.5 100.5t-41 100t-101 41q-59 0 -100 -41t-41 -100zM354 250q0 113 36 182.5t120 69.5h84v-359q0 -18 -17.5 -37.5t-42 -35t-49 -25.5t-36.5 -10q-51 0 -73 50t-22 165zM561 1182 q0 -59 41 -100.5t100 -41.5t100.5 41.5t41.5 100.5t-41 100t-101 41q-59 0 -100 -41t-41 -100z" />
<glyph unicode="&#xe5;" horiz-adv-x="1101" d="M39 248q0 -55 19.5 -105.5t58.5 -87.5t97 -58.5t136 -21.5q51 0 91 10.5t71 27t54.5 35t39.5 34.5q18 -43 73.5 -75t160.5 -32q74 0 116.5 16.5t66.5 39t31 49t7 49.5q0 16 -12 16q-14 0 -17 -18q-6 -31 -19.5 -53.5t-47.5 -22.5q-41 0 -52.5 27.5t-11.5 77.5v430 q0 86 -23.5 145.5t-75.5 96t-133 52t-198 15.5q-135 0 -223 -41t-88 -123q0 -59 33.5 -84.5t76.5 -25.5q35 0 56.5 11t34 26.5t16.5 34t4 30.5q0 51 -39 76q-14 8 -14 20q0 16 30.5 27.5t114.5 11.5q76 0 98.5 -41t22.5 -115v-163h-221q-84 0 -146.5 -26t-104.5 -66.5 t-62.5 -93t-20.5 -105.5zM311 1186q0 -76 54.5 -130.5t130.5 -54.5t130 54.5t54 130.5t-54.5 130t-129.5 54q-76 0 -130.5 -54t-54.5 -130zM350 1186q0 61 42 103t104 42q61 0 103 -42t42 -103t-42 -103.5t-103 -42.5t-103.5 42.5t-42.5 103.5zM354 250q0 113 36 182.5 t120 69.5h84v-359q0 -18 -17.5 -37.5t-42 -35t-49 -25.5t-36.5 -10q-51 0 -73 50t-22 165z" />
<glyph unicode="&#xe6;" horiz-adv-x="1568" d="M39 248q0 -55 19.5 -105.5t58.5 -87.5t97 -58.5t136 -21.5q51 0 91 10.5t71 27t54.5 35t39.5 34.5q27 -35 72 -55.5t103.5 -31.5t126 -15.5t139.5 -4.5q82 0 150.5 21.5t122.5 58.5t92 85t58 102q6 14 7 26q0 20 -15 21q-12 0 -18 -8.5t-17 -26.5q-20 -45 -54 -87 t-82 -75t-108.5 -52.5t-135.5 -19.5q-31 0 -55.5 8.5t-42 31t-27 62.5t-9.5 101v283h600q-8 55 -33.5 122.5t-77.5 127t-138 100.5t-217 41q-76 0 -138.5 -23.5t-113.5 -54.5q-53 35 -132 55.5t-192 20.5q-135 0 -223 -41t-88 -123q0 -59 33.5 -84.5t76.5 -25.5 q35 0 56.5 11t34 26.5t16.5 34t4 30.5q0 51 -39 76q-14 8 -14 20q0 16 30.5 27.5t114.5 11.5q76 0 98.5 -41t22.5 -115v-163h-221q-84 0 -146.5 -26t-104.5 -66.5t-62.5 -93t-20.5 -105.5zM354 250q0 113 36 182.5t120 69.5h84v-359q0 -18 -17.5 -37.5t-42 -35t-49 -25.5 t-36.5 -10q-51 0 -73 50t-22 165zM913 545v151q0 164 131 164q127 0 127 -164v-151h-258z" />
<glyph unicode="&#xe7;" horiz-adv-x="913" d="M27 436q0 -86 28.5 -169t87 -147.5t144.5 -104.5t202 -40l-20 -86q23 -10 45.5 -30.5t22.5 -59.5q0 -37 -25 -54t-55 -17q-23 0 -44.5 9t-37.5 30q-16 16 -25 16q-6 0 -6 -8t8 -23q23 -35 56.5 -60.5t76.5 -25.5q61 0 98.5 33t37.5 82q0 27 -11.5 48t-27 36.5t-33 25 t-29.5 13.5l17 73q139 10 233 85t131 186q2 4 2 12q0 23 -18 23q-14 0 -21 -21q-16 -49 -49 -92t-78 -77t-99 -53.5t-112 -19.5q-53 0 -89 16.5t-58.5 55.5t-31.5 102.5t-9 159.5v164q0 94 9 158.5t30.5 105.5t55.5 59.5t85 18.5q80 0 128 -20.5t48 -32.5q-45 -6 -76.5 -39 t-31.5 -86q0 -47 33.5 -82t93.5 -35q63 0 96 39t33 92q0 31 -14.5 66t-52.5 65.5t-106.5 50t-176.5 19.5q-111 0 -197 -40t-146.5 -104.5t-91 -147.5t-30.5 -169z" />
<glyph unicode="&#xe8;" horiz-adv-x="983" d="M29 436q0 -86 28.5 -169t87 -147.5t145.5 -104.5t204 -40q82 0 150.5 21.5t122.5 58.5t92 85t59 102q6 14 6 26q0 20 -15 21q-12 0 -18 -8.5t-17 -26.5q-23 -45 -56.5 -87t-80.5 -75t-107.5 -52.5t-135.5 -19.5q-31 0 -55.5 8.5t-42 31t-27 62.5t-9.5 101v283h601 q-8 55 -34 122.5t-78 127t-138 100.5t-217 41q-117 0 -204 -40t-145.5 -104.5t-87 -147.5t-28.5 -169zM154 1327l335 -334l33 19l-166 315h-202zM360 545v151q0 164 132 164q127 0 126 -164v-151h-258z" />
<glyph unicode="&#xe9;" horiz-adv-x="983" d="M29 436q0 -86 28.5 -169t87 -147.5t145.5 -104.5t204 -40q82 0 150.5 21.5t122.5 58.5t92 85t59 102q6 14 6 26q0 20 -15 21q-12 0 -18 -8.5t-17 -26.5q-23 -45 -56.5 -87t-80.5 -75t-107.5 -52.5t-135.5 -19.5q-31 0 -55.5 8.5t-42 31t-27 62.5t-9.5 101v283h601 q-8 55 -34 122.5t-78 127t-138 100.5t-217 41q-117 0 -204 -40t-145.5 -104.5t-87 -147.5t-28.5 -169zM360 545v151q0 164 132 164q127 0 126 -164v-151h-258zM446 1012l33 -19l336 334h-203z" />
<glyph unicode="&#xea;" horiz-adv-x="983" d="M29 436q0 -86 28.5 -169t87 -147.5t145.5 -104.5t204 -40q82 0 150.5 21.5t122.5 58.5t92 85t59 102q6 14 6 26q0 20 -15 21q-12 0 -18 -8.5t-17 -26.5q-23 -45 -56.5 -87t-80.5 -75t-107.5 -52.5t-135.5 -19.5q-31 0 -55.5 8.5t-42 31t-27 62.5t-9.5 101v283h601 q-8 55 -34 122.5t-78 127t-138 100.5t-217 41q-117 0 -204 -40t-145.5 -104.5t-87 -147.5t-28.5 -169zM199 1030l12 -6l262 162l264 -162l15 6l-230 295h-96zM360 545v151q0 164 132 164q127 0 126 -164v-151h-258z" />
<glyph unicode="&#xeb;" horiz-adv-x="983" d="M29 436q0 -86 28.5 -169t87 -147.5t145.5 -104.5t204 -40q82 0 150.5 21.5t122.5 58.5t92 85t59 102q6 14 6 26q0 20 -15 21q-12 0 -18 -8.5t-17 -26.5q-23 -45 -56.5 -87t-80.5 -75t-107.5 -52.5t-135.5 -19.5q-31 0 -55.5 8.5t-42 31t-27 62.5t-9.5 101v283h601 q-8 55 -34 122.5t-78 127t-138 100.5t-217 41q-117 0 -204 -40t-145.5 -104.5t-87 -147.5t-28.5 -169zM150 1182q0 -59 40.5 -100.5t100.5 -41.5q59 0 100 41.5t41 100.5t-41 100t-100 41t-100 -41t-41 -100zM360 545v151q0 164 132 164q127 0 126 -164v-151h-258zM543 1182 q0 -59 41 -100.5t100 -41.5t100 41.5t41 100.5t-41 100t-100 41t-100 -41t-41 -100z" />
<glyph unicode="&#xec;" horiz-adv-x="626" d="M-31 1327l334 -334l35 19l-166 315h-203zM55 0h529v33h-111v913l-418 -65v-35l111 18v-831h-111v-33z" />
<glyph unicode="&#xed;" horiz-adv-x="626" d="M55 0h529v33h-111v913l-418 -65v-35l111 18v-831h-111v-33zM268 1012l33 -19l336 334h-203z" />
<glyph unicode="&#xee;" horiz-adv-x="626" d="M39 1030l14 -6l262 162l265 -162l12 6l-230 295h-96zM55 0h529v33h-111v913l-418 -65v-35l111 18v-831h-111v-33z" />
<glyph unicode="&#xef;" horiz-adv-x="626" d="M-23 1182q0 -59 41 -100.5t101 -41.5q59 0 100 41.5t41 100.5t-41 100t-100 41t-100.5 -41t-41.5 -100zM55 0h529v33h-111v913l-418 -65v-35l111 18v-831h-111v-33zM371 1182q0 -59 41 -100.5t100 -41.5t100 41.5t41 100.5t-41 100t-100 41t-100 -41t-41 -100z" />
<glyph unicode="&#xf0;" horiz-adv-x="987" d="M33 432q0 -86 28.5 -168t86 -146.5t143.5 -103.5t203 -39t203.5 40t143 104.5t85 148.5t28.5 170q0 158 -53 289t-130 232.5t-163 175t-153 116.5l82 121l-78 45l-84 -123q-41 18 -85 32.5t-93 25.5l-33 -54q102 -33 164 -75l-78 -117l78 -45l71 106q53 -47 96.5 -123.5 t69.5 -150.5q-16 0 -34.5 2t-36.5 2q-115 0 -202 -40t-144.5 -105.5t-86 -149.5t-28.5 -170zM350 350v164q0 82 4 147.5t18.5 109.5t43 67.5t78.5 23.5q49 0 77.5 -23.5t43 -67.5t18.5 -109.5t4 -147.5v-164q0 -84 -4 -147.5t-18.5 -106.5t-43 -64.5t-77.5 -21.5t-78 21.5 t-43.5 64.5t-18.5 106.5t-4 147.5z" />
<glyph unicode="&#xf1;" horiz-adv-x="1153" d="M31 0h506v33h-88v563q0 41 17 85t44 80t57.5 59.5t59.5 23.5q57 0 72.5 -45t15.5 -140v-626h-88v-33h506v33h-111v579q0 86 -25.5 143.5t-67.5 90.5t-98.5 46t-117.5 13q-53 0 -95.5 -14t-73 -37t-53 -53.5t-36.5 -61.5v191l-424 -72v-35l110 19v-809h-110v-33zM229 1112 q0 -35 23 -35q20 0 20 29q4 33 29 53.5t61 20.5q31 0 61 -17.5t71 -34.5q55 -23 99 -32t93 -9q63 0 102 16.5t61.5 39t31 47t8.5 43.5q0 31 -21 31q-20 0 -24 -29q-2 -23 -15.5 -40t-60.5 -17q-35 0 -69.5 13.5t-69.5 27.5q-47 20 -96.5 33.5t-96.5 13.5q-55 0 -94 -16.5 t-63.5 -40t-37 -50t-12.5 -47.5z" />
<glyph unicode="&#xf2;" horiz-adv-x="987" d="M33 436q0 -86 28.5 -169t85 -147.5t143.5 -104.5t204 -40t203.5 40t143 104.5t85 147.5t28.5 169t-28.5 169t-85 147.5t-143.5 104.5t-203 40q-117 0 -204 -40t-143.5 -104.5t-85 -147.5t-28.5 -169zM154 1327l335 -334l33 19l-166 315h-202zM350 352v160q0 82 4 147.5 t18.5 109.5t43 67.5t78.5 23.5q49 0 77.5 -23.5t43 -67.5t18.5 -109.5t4 -147.5v-160q0 -84 -4 -147.5t-18.5 -106.5t-43 -64.5t-77.5 -21.5t-78 21.5t-43.5 64.5t-18.5 106.5t-4 147.5z" />
<glyph unicode="&#xf3;" horiz-adv-x="987" d="M33 436q0 -86 28.5 -169t85 -147.5t143.5 -104.5t204 -40t203.5 40t143 104.5t85 147.5t28.5 169t-28.5 169t-85 147.5t-143.5 104.5t-203 40q-117 0 -204 -40t-143.5 -104.5t-85 -147.5t-28.5 -169zM350 352v160q0 82 4 147.5t18.5 109.5t43 67.5t78.5 23.5 q49 0 77.5 -23.5t43 -67.5t18.5 -109.5t4 -147.5v-160q0 -84 -4 -147.5t-18.5 -106.5t-43 -64.5t-77.5 -21.5t-78 21.5t-43.5 64.5t-18.5 106.5t-4 147.5zM428 1012l33 -19l334 334h-203z" />
<glyph unicode="&#xf4;" horiz-adv-x="987" d="M33 436q0 -86 28.5 -169t85 -147.5t143.5 -104.5t204 -40t203.5 40t143 104.5t85 147.5t28.5 169t-28.5 169t-85 147.5t-143.5 104.5t-203 40q-117 0 -204 -40t-143.5 -104.5t-85 -147.5t-28.5 -169zM209 1030l14 -6l262 162l265 -162l12 6l-230 295h-96zM350 352v160 q0 82 4 147.5t18.5 109.5t43 67.5t78.5 23.5q49 0 77.5 -23.5t43 -67.5t18.5 -109.5t4 -147.5v-160q0 -84 -4 -147.5t-18.5 -106.5t-43 -64.5t-77.5 -21.5t-78 21.5t-43.5 64.5t-18.5 106.5t-4 147.5z" />
<glyph unicode="&#xf5;" horiz-adv-x="987" d="M33 436q0 -86 28.5 -169t85 -147.5t143.5 -104.5t204 -40t203.5 40t143 104.5t85 147.5t28.5 169t-28.5 169t-85 147.5t-143.5 104.5t-203 40q-117 0 -204 -40t-143.5 -104.5t-85 -147.5t-28.5 -169zM143 1112q0 -35 23 -35q20 0 20 29q4 33 29 53.5t61 20.5 q31 0 61 -17.5t71 -34.5q55 -23 99 -32t93 -9q63 0 102 16.5t61.5 39t31 47t8.5 43.5q0 31 -21 31q-20 0 -24 -29q-2 -23 -15.5 -40t-60.5 -17q-35 0 -69.5 13.5t-69.5 27.5q-47 20 -96.5 33.5t-96.5 13.5q-55 0 -94 -16.5t-63.5 -40t-37 -50t-12.5 -47.5zM350 352v160 q0 82 4 147.5t18.5 109.5t43 67.5t78.5 23.5q49 0 77.5 -23.5t43 -67.5t18.5 -109.5t4 -147.5v-160q0 -84 -4 -147.5t-18.5 -106.5t-43 -64.5t-77.5 -21.5t-78 21.5t-43.5 64.5t-18.5 106.5t-4 147.5z" />
<glyph unicode="&#xf6;" horiz-adv-x="987" d="M33 436q0 -86 28.5 -169t85 -147.5t143.5 -104.5t204 -40t203.5 40t143 104.5t85 147.5t28.5 169t-28.5 169t-85 147.5t-143.5 104.5t-203 40q-117 0 -204 -40t-143.5 -104.5t-85 -147.5t-28.5 -169zM154 1182q0 -59 41 -100.5t100 -41.5t100 41.5t41 100.5t-41 100 t-100 41t-100 -41t-41 -100zM350 352v160q0 82 4 147.5t18.5 109.5t43 67.5t78.5 23.5q49 0 77.5 -23.5t43 -67.5t18.5 -109.5t4 -147.5v-160q0 -84 -4 -147.5t-18.5 -106.5t-43 -64.5t-77.5 -21.5t-78 21.5t-43.5 64.5t-18.5 106.5t-4 147.5zM547 1182q0 -59 41 -100.5 t100 -41.5t100 41.5t41 100.5t-40.5 100t-100.5 41q-59 0 -100 -41t-41 -100z" />
<glyph unicode="&#xf7;" horiz-adv-x="759" d="M115 500h544v88h-544v-88zM270 244q0 -47 33 -80t80 -33t80 33t33 80t-33 79.5t-80 32.5t-80 -32.5t-33 -79.5zM270 827q0 -47 33 -79.5t80 -32.5t80 32.5t33 79.5t-33 80t-80 33t-80 -33t-33 -80z" />
<glyph unicode="&#xf8;" horiz-adv-x="987" d="M33 436q0 -68 17.5 -133t51 -122.5t86 -102.5t123.5 -72l-37 -112l37 -11l37 111q63 -18 146 -19q117 0 203.5 40t143 104.5t85 147.5t28.5 169q0 70 -19.5 139.5t-57 129t-96 104.5t-138.5 68l31 90l-35 14l-33 -96q-53 12 -112 12q-117 0 -204 -40t-143.5 -104.5 t-85 -147.5t-28.5 -169zM350 352v160q0 82 4 147.5t18.5 109.5t43 67.5t78.5 23.5q57 0 92 -37l-226 -673q-6 41 -8 91t-2 111zM379 84l231 694q16 -45 21.5 -111.5t5.5 -154.5v-160q0 -84 -4 -147.5t-18.5 -106.5t-43 -64.5t-77.5 -21.5q-86 0 -115 72z" />
<glyph unicode="&#xf9;" horiz-adv-x="1177" d="M53 823l111 19v-533q0 -334 307 -334q109 0 169 49.5t91 112.5v-137h420v33h-109v895l-415 -70v-35l108 19v-539q0 -35 -14 -79t-38 -83t-55.5 -65.5t-66.5 -26.5q-51 0 -70.5 35t-19.5 125v719l-418 -70v-35zM260 1327l334 -334l33 19l-164 315h-203z" />
<glyph unicode="&#xfa;" horiz-adv-x="1177" d="M53 823l111 19v-533q0 -334 307 -334q109 0 169 49.5t91 112.5v-137h420v33h-109v895l-415 -70v-35l108 19v-539q0 -35 -14 -79t-38 -83t-55.5 -65.5t-66.5 -26.5q-51 0 -70.5 35t-19.5 125v719l-418 -70v-35zM559 1012l33 -19l336 334h-203z" />
<glyph unicode="&#xfb;" horiz-adv-x="1177" d="M53 823l111 19v-533q0 -334 307 -334q109 0 169 49.5t91 112.5v-137h420v33h-109v895l-415 -70v-35l108 19v-539q0 -35 -14 -79t-38 -83t-55.5 -65.5t-66.5 -26.5q-51 0 -70.5 35t-19.5 125v719l-418 -70v-35zM326 1030l14 -6l262 162l264 -162l13 6l-230 295h-96z" />
<glyph unicode="&#xfc;" horiz-adv-x="1177" d="M53 823l111 19v-533q0 -334 307 -334q109 0 169 49.5t91 112.5v-137h420v33h-109v895l-415 -70v-35l108 19v-539q0 -35 -14 -79t-38 -83t-55.5 -65.5t-66.5 -26.5q-51 0 -70.5 35t-19.5 125v719l-418 -70v-35zM266 1182q0 -59 41 -100.5t101 -41.5q59 0 100 41.5 t41 100.5t-41 100t-100 41t-100.5 -41t-41.5 -100zM659 1182q0 -59 41 -100.5t101 -41.5q59 0 100 41.5t41 100.5t-41 100t-100 41t-100.5 -41t-41.5 -100z" />
<glyph unicode="&#xfd;" horiz-adv-x="1091" d="M37 848h108l441 -918q-10 -43 -24.5 -90t-41.5 -123q-33 -94 -72.5 -152.5t-115.5 -58.5q20 14 33.5 36t13.5 65q0 47 -33 83t-90 36t-95 -35t-38 -86q0 -70 49 -105t109 -35q59 0 100 11.5t69.5 37t51 66.5t45.5 103q14 41 28.5 87t27.5 90t25.5 83.5t22.5 68.5l289 756 q16 45 49 62.5t74 17.5v33h-242v-33q49 0 67.5 -15.5t18.5 -31.5q0 -20 -6 -33l-182 -477l-264 557h110v33h-528v-33zM567 1012l33 -19l334 334h-203z" />
<glyph unicode="&#xfe;" horiz-adv-x="1144" d="M57 -520v-33h529v33h-111v631q27 -47 81 -89t138 -42q100 0 176 38.5t126.5 103t76 147.5t25.5 169t-25.5 168t-76 146.5t-126 104.5t-176.5 40q-94 0 -145 -35t-74 -76v646l-418 -78v-33l111 20v-1861h-111zM475 186v541q12 20 30.5 42t40 40t47 29.5t54.5 11.5 q55 0 80 -61.5t25 -227.5v-246q0 -90 -7.5 -144t-20.5 -84t-32.5 -39t-44.5 -9q-29 0 -54.5 15.5t-47 38t-40 48t-30.5 45.5z" />
<glyph unicode="&#xff;" horiz-adv-x="1091" d="M37 848h108l441 -918q-10 -43 -24.5 -90t-41.5 -123q-33 -94 -72.5 -152.5t-115.5 -58.5q20 14 33.5 36t13.5 65q0 47 -33 83t-90 36t-95 -35t-38 -86q0 -70 49 -105t109 -35q59 0 100 11.5t69.5 37t51 66.5t45.5 103q14 41 28.5 87t27.5 90t25.5 83.5t22.5 68.5l289 756 q16 45 49 62.5t74 17.5v33h-242v-33q49 0 67.5 -15.5t18.5 -31.5q0 -20 -6 -33l-182 -477l-264 557h110v33h-528v-33zM262 1182q0 -59 41 -100.5t100 -41.5t100.5 41.5t41.5 100.5t-41 100t-101 41q-59 0 -100 -41t-41 -100zM655 1182q0 -59 41 -100.5t101 -41.5 q59 0 100 41.5t41 100.5t-41 100t-100 41t-100.5 -41t-41.5 -100z" />
<glyph unicode="&#x152;" horiz-adv-x="2015" d="M72 692q0 -135 42 -263t125 -229.5t205.5 -163t284.5 -61.5q86 0 160 17.5t139 52.5v-45h862q33 0 44.5 16.5t11.5 44.5v336q0 33 -21 33q-20 0 -27 -33q-16 -76 -34.5 -142.5t-55 -115.5t-97 -77.5t-159.5 -28.5h-194v676h125q78 0 120 -51.5t52 -155.5q2 -37 20 -37 q20 0 21 37v446q0 37 -21 37q-18 0 -20 -37q-10 -102 -52 -154.5t-120 -52.5h-125v609h158q80 0 140 -29t102 -75t63.5 -103.5t25.5 -114.5q0 -27 21 -27q20 0 20 27l-16 297q-2 33 -18.5 45t-47.5 12h-778v-43q-66 33 -139.5 50.5t-159.5 17.5q-162 0 -284.5 -61.5 t-205.5 -162t-125 -229.5t-42 -262zM465 590v205q0 154 9 262t37 178t80 102.5t138 32.5t138.5 -32.5t80 -102.5t36.5 -178.5t9 -261.5v-205q0 -170 -9 -281.5t-36.5 -177t-80 -92.5t-138.5 -27t-138 27t-80 92.5t-37 177t-9 281.5z" />
<glyph unicode="&#x153;" horiz-adv-x="1589" d="M33 436q0 -86 28.5 -169t85 -147.5t143.5 -104.5t204 -40q96 0 171 27t130 72q57 -45 131.5 -72t169.5 -27q82 0 150.5 21.5t122.5 58.5t92 85t59 102q6 14 6 26q0 20 -15 21q-12 0 -18 -8.5t-16 -26.5q-23 -45 -57 -87t-81 -75t-107.5 -52.5t-135.5 -19.5 q-31 0 -55.5 8.5t-42 31t-26.5 62.5t-9 101v283h600q-8 55 -34 122.5t-78 127t-138 100.5t-217 41q-94 0 -170 -26.5t-131 -71.5q-55 45 -130 71.5t-171 26.5q-117 0 -204 -40t-143.5 -104.5t-85 -147.5t-28.5 -169zM350 352v160q0 82 4 147.5t18.5 109.5t43 67.5t78.5 23.5 q49 0 77.5 -23.5t43 -67.5t18.5 -109.5t4 -147.5v-160q0 -84 -4 -147.5t-18.5 -106.5t-43 -64.5t-77.5 -21.5t-78 21.5t-43.5 64.5t-18.5 106.5t-4 147.5zM963 545v151q0 164 131 164q127 0 127 -164v-151h-258z" />
<glyph unicode="&#x178;" horiz-adv-x="1374" d="M43 1352h109l403 -746v-573h-111v-33h551v33h-110v626l278 566q12 25 26.5 47t35 39.5t50.5 28t75 10.5v32h-346v-32q70 0 95 -17.5t25 -46.5t-16 -61l-266 -541l-353 668h111v32h-557v-32zM446 1620q0 -53 37 -90t90 -37t90 37t37 90t-36.5 90t-90.5 37q-53 0 -90 -37 t-37 -90zM807 1620q0 -53 37 -90t90 -37t90 37t37 90t-37 90t-90 37t-90 -37t-37 -90z" />
<glyph unicode="&#x2c6;" horiz-adv-x="782" d="M125 1030l14 -6l262 162l265 -162l12 6l-229 295h-97z" />
<glyph unicode="&#x2dc;" horiz-adv-x="880" d="M143 1112q0 -35 23 -35q20 0 20 29q4 33 29 53.5t61 20.5q31 0 61 -17.5t71 -34.5q55 -23 99 -32t93 -9q63 0 102 16.5t61.5 39t31 47t8.5 43.5q0 31 -21 31q-20 0 -24 -29q-2 -23 -15.5 -40t-60.5 -17q-35 0 -69.5 13.5t-69.5 27.5q-47 20 -96.5 33.5t-96.5 13.5 q-55 0 -94 -16.5t-63.5 -40t-37 -50t-12.5 -47.5z" />
<glyph unicode="&#x2000;" horiz-adv-x="895" />
<glyph unicode="&#x2001;" horiz-adv-x="1790" />
<glyph unicode="&#x2002;" horiz-adv-x="895" />
<glyph unicode="&#x2003;" horiz-adv-x="1790" />
<glyph unicode="&#x2004;" horiz-adv-x="596" />
<glyph unicode="&#x2005;" horiz-adv-x="447" />
<glyph unicode="&#x2006;" horiz-adv-x="298" />
<glyph unicode="&#x2007;" horiz-adv-x="298" />
<glyph unicode="&#x2008;" horiz-adv-x="223" />
<glyph unicode="&#x2009;" horiz-adv-x="358" />
<glyph unicode="&#x200a;" horiz-adv-x="99" />
<glyph unicode="&#x2010;" horiz-adv-x="573" d="M109 584h366v65h-366v-65z" />
<glyph unicode="&#x2011;" horiz-adv-x="573" d="M109 584h366v65h-366v-65z" />
<glyph unicode="&#x2012;" horiz-adv-x="573" d="M109 584h366v65h-366v-65z" />
<glyph unicode="&#x2013;" horiz-adv-x="749" d="M115 565h532v88h-532v-88z" />
<glyph unicode="&#x2014;" horiz-adv-x="1421" d="M115 565h1204v88h-1204v-88z" />
<glyph unicode="&#x2018;" horiz-adv-x="518" d="M88 1098q0 -92 48 -146.5t116 -54.5t116 48t48 116q0 74 -48 119t-116 45q-33 0 -68 -15q0 92 58.5 162t199.5 105q12 2 13 12q0 14 -15 14q-10 0 -18 -2q-156 -29 -245 -125t-89 -278z" />
<glyph unicode="&#x2019;" horiz-adv-x="550" d="M84 891q0 -14 14 -14q10 0 19 2q156 29 245 125t89 278q0 92 -48.5 146.5t-115.5 54.5q-68 0 -116 -48.5t-48 -115.5q0 -74 48 -119t116 -45q18 0 34.5 4t32.5 10q0 -92 -58 -161.5t-200 -104.5q-12 -4 -12 -12z" />
<glyph unicode="&#x201a;" horiz-adv-x="550" d="M84 -129q0 -14 14 -14q10 0 19 2q156 29 245 125t89 278q0 92 -48.5 146.5t-115.5 54.5q-68 0 -116 -48t-48 -116q0 -74 48 -119t116 -45q18 0 34.5 4t32.5 11q0 -92 -58 -162t-200 -105q-12 -4 -12 -12z" />
<glyph unicode="&#x201c;" horiz-adv-x="958" d="M88 1098q0 -92 48 -146.5t116 -54.5t116 48t48 116q0 74 -48 119t-116 45q-33 0 -68 -15q0 92 58.5 162t199.5 105q12 2 13 12q0 14 -15 14q-10 0 -18 -2q-156 -29 -245 -125t-89 -278zM516 1098q0 -92 48 -146.5t116 -54.5t116 48t48 116q0 74 -48 119t-116 45 q-33 0 -68 -15q0 92 58.5 162t199.5 105q12 2 13 12q0 14 -15 14q-10 0 -18 -2q-156 -29 -245 -125t-89 -278z" />
<glyph unicode="&#x201d;" horiz-adv-x="958" d="M84 891q0 -14 14 -14q10 0 19 2q156 29 245 125t89 278q0 92 -48.5 146.5t-115.5 54.5q-68 0 -116 -48.5t-48 -115.5q0 -74 48 -119t116 -45q18 0 34.5 4t32.5 10q0 -92 -58 -161.5t-200 -104.5q-12 -4 -12 -12zM512 891q0 -14 14 -14q10 0 19 2q156 29 245 125t89 278 q0 92 -48.5 146.5t-115.5 54.5q-68 0 -116 -48.5t-48 -115.5q0 -74 48 -119t116 -45q18 0 34.5 4t32.5 10q0 -92 -58 -161.5t-200 -104.5q-12 -4 -12 -12z" />
<glyph unicode="&#x201e;" horiz-adv-x="958" d="M84 -129q0 -14 14 -14q10 0 19 2q156 29 245 125t89 278q0 92 -48.5 146.5t-115.5 54.5q-68 0 -116 -48t-48 -116q0 -74 48 -119t116 -45q18 0 34.5 4t32.5 11q0 -92 -58 -162t-200 -105q-12 -4 -12 -12zM512 -129q0 -14 14 -14q10 0 19 2q156 29 245 125t89 278 q0 92 -48.5 146.5t-115.5 54.5q-68 0 -116 -48t-48 -116q0 -74 48 -119t116 -45q18 0 34.5 4t32.5 11q0 -92 -58 -162t-200 -105q-12 -4 -12 -12z" />
<glyph unicode="&#x2022;" horiz-adv-x="935" d="M127 481q0 -70 26.5 -131t72.5 -107t107.5 -73t131.5 -27t131 27t107.5 73t73 107t26.5 131t-26.5 131.5t-73 107.5t-107.5 72.5t-131 26.5t-131.5 -26.5t-107.5 -72.5t-72.5 -107.5t-26.5 -131.5z" />
<glyph unicode="&#x2026;" horiz-adv-x="1501" d="M117 139q0 -68 48 -116t116 -48t115.5 48t47.5 116t-48 116t-115 48q-68 0 -116 -48t-48 -116zM616 139q0 -68 48.5 -116t115.5 -48q68 0 116 48t48 116t-48 116t-116 48t-116 -48t-48 -116zM1116 139q0 -68 48 -116t116 -48t116 48t48 116t-48 116t-116 48t-116 -48 t-48 -116z" />
<glyph unicode="&#x202f;" horiz-adv-x="358" />
<glyph unicode="&#x2039;" horiz-adv-x="518" d="M61 551l347 -320h34l-247 320l247 319h-34z" />
<glyph unicode="&#x203a;" horiz-adv-x="538" d="M88 231h35l346 320l-346 319h-35l250 -319z" />
<glyph unicode="&#x205f;" horiz-adv-x="447" />
<glyph unicode="&#x2122;" horiz-adv-x="1013" d="M80 1294h16q8 63 68 64h53v-352h-53v-17h176v17h-57v352h53q59 0 67 -64h17l-6 82h-326zM481 989h135v17h-57v305l121 -322h12l111 344v-327h-55v-17h172v17h-54v352h54v18h-121l-97 -293l-110 293h-111v-18h58v-352h-58v-17z" />
<glyph unicode="&#x25fc;" horiz-adv-x="880" d="M0 0v881h881v-881h-881z" />
</font>
</defs>
</svg>
