<svg width="181" height="27" viewBox="0 0 181 27" fill="none" xmlns="http://www.w3.org/2000/svg">
<path fill-rule="evenodd" clip-rule="evenodd" d="M23.9073 20.4903C22.2889 22.731 20.4347 24.3749 18.3447 25.4249C16.2546 26.475 14.1439 27 12.0067 27C10.4326 27 8.92619 26.7045 7.48173 26.1077C6.03726 25.5139 4.75788 24.6646 3.64358 23.5544C2.52928 22.4469 1.64197 21.1042 0.984593 19.5292C0.327215 17.9541 0 16.1839 0 14.2187C0 12.0727 0.392068 10.1246 1.17915 8.37743C1.96624 6.63022 3.02158 5.13261 4.34813 3.89034C5.67467 2.6452 7.19283 1.68409 8.9085 1.01275C10.6212 0.335671 12.4047 0 14.2589 0C15.5972 0 16.9238 0.200829 18.2386 0.599617C19.5533 1.00128 20.8445 1.62384 22.1121 2.46733L19.7184 5.03793C18.5687 3.82722 17.3778 2.94645 16.1456 2.39847C14.9133 1.85049 13.687 1.57507 12.4666 1.57507C11.2462 1.57507 9.97269 1.83041 8.78764 2.34683C7.60259 2.86038 6.54725 3.60344 5.61866 4.57316C4.69008 5.54574 3.94721 6.72777 3.38417 8.11922C2.82112 9.51355 2.53813 11.0771 2.53813 12.8129C2.53813 14.5486 2.83292 16.1811 3.41954 17.6442C4.00617 19.1074 4.79915 20.3583 5.79554 21.394C6.79192 22.4354 7.94749 23.2388 9.26225 23.8097C10.577 24.3806 11.9743 24.6675 13.4512 24.6675C15.0932 24.6675 16.7676 24.2974 18.4685 23.5544C20.1694 22.8113 21.7966 21.6522 23.3443 20.0771L23.9073 20.4874V20.4903ZM94.0109 0.341409H96.8261V26.6557H94.0109V0.341409ZM51.4818 11.4817V0.341409H54.2971V26.6586H51.4818V13.1658H34.8292V26.6586H32.0111V0.341409H34.8292V11.4817H51.4818ZM76.5654 16.0118C77.5146 15.7192 78.3989 15.3491 79.189 14.8929C80.3357 14.2302 81.2672 13.3551 81.96 12.2879C82.6498 11.2263 82.9976 9.92955 82.9976 8.43768C82.9976 6.61874 82.6233 5.16704 81.8863 4.11986C81.1434 3.06694 80.206 2.24928 79.1005 1.68409C77.9862 1.11603 76.7511 0.748805 75.4363 0.588142C74.1009 0.424609 72.854 0.344278 71.7308 0.344278H65.5609V26.6586H68.3761V16.7061C68.4396 16.7124 68.5025 16.7209 68.5656 16.7295L68.5657 16.7295L68.5657 16.7295C68.6462 16.7404 68.7269 16.7513 68.8095 16.7577C69.4285 16.8065 70.0564 16.8323 70.6784 16.8323C71.663 16.8323 72.6476 16.7606 73.6175 16.6315L81.9158 26.6815H85.6507L76.5624 16.0147L76.5654 16.0118ZM70.4485 15.8138C69.8766 15.8138 69.287 15.788 68.7004 15.7364C68.6281 15.7305 68.5545 15.722 68.4813 15.7135L68.481 15.7135C68.4468 15.7095 68.4128 15.7056 68.3791 15.7019V1.50335C68.4867 1.49213 68.5965 1.47928 68.7061 1.46646C68.8488 1.44977 68.9912 1.43313 69.1279 1.42015C69.8412 1.35703 70.5487 1.3226 71.2238 1.3226C72.4472 1.3226 73.6175 1.45171 74.7111 1.70418C75.8048 1.96238 76.7688 2.37839 77.5765 2.94645C78.3872 3.51737 79.0416 4.25757 79.5191 5.14982C79.9967 6.04208 80.2414 7.13516 80.2414 8.39464C80.2414 9.78036 79.9643 10.971 79.4189 11.9292C78.8736 12.8846 78.1395 13.6592 77.2375 14.2273C76.3413 14.7925 75.286 15.2027 74.1009 15.4437C72.9306 15.6847 71.7014 15.8081 70.4456 15.8081L70.4485 15.8138ZM132.985 3.00956V0.341409H153.756V3.00956C153.535 3.03825 153.178 3.06694 152.874 3.06694C151.68 2.70258 150.427 2.44437 149.11 2.29806C147.468 2.11731 146.023 2.0255 144.779 2.0255V26.6586H141.964V2.0255C140.72 2.0255 139.276 2.11731 137.634 2.29806C136.316 2.44437 135.063 2.69971 133.866 3.06694C133.563 3.06694 133.206 3.03825 132.985 3.00956ZM178.421 0.341409C178.421 0.341409 176.811 5.35926 171.307 16.0175H171.237L162.225 0.341409H159.469V1.46605L168.843 17.4549V26.6557H171.658V17.3201L180.997 1.46318V0.341409H178.421ZM110.728 4.40102C110.72 4.49283 110.711 4.58463 110.711 4.67931L110.693 4.67644C110.693 7.82409 114.574 9.63812 118.598 11.5188C122.929 13.5431 127.425 15.6446 127.425 19.5693C127.425 24.2113 122.508 26.9971 116.562 26.9971C114.873 26.9971 109.443 26.1766 107.901 25.6401L108.01 22.533H108.025C109.016 22.6047 109.738 22.7969 110.31 23.0523C110.336 23.0638 110.363 23.0752 110.386 23.0867L110.475 23.1297C110.495 23.1384 110.513 23.1482 110.531 23.1577C110.543 23.1639 110.555 23.17 110.566 23.1756C110.619 23.2015 110.672 23.2302 110.722 23.2588C110.793 23.299 110.864 23.342 110.935 23.3851C111.361 23.6557 111.702 23.9636 112.041 24.2704C112.55 24.7311 113.057 25.1895 113.85 25.5167H113.853C114.572 25.8122 115.528 26.0016 116.934 25.9844C117.108 25.9844 117.276 25.9786 117.441 25.97H117.458C117.612 25.9643 117.762 25.9528 117.906 25.9413C117.919 25.9393 117.933 25.9373 117.947 25.9363C117.952 25.9358 117.957 25.9356 117.962 25.9356C118.101 25.9241 118.24 25.9098 118.372 25.8926C118.384 25.8897 118.393 25.8897 118.405 25.8897C118.844 25.8352 119.251 25.7577 119.622 25.6659L119.658 25.6573C119.772 25.6286 119.882 25.5999 119.988 25.5684C119.997 25.5655 120.008 25.5626 120.017 25.5598C120.368 25.4565 120.686 25.3389 120.978 25.2098C120.98 25.209 120.981 25.2082 120.982 25.2075C120.986 25.2056 120.989 25.204 120.993 25.204C121.084 25.1639 121.173 25.1237 121.258 25.0807C121.263 25.0792 121.266 25.0771 121.27 25.0749C121.274 25.0728 121.277 25.0706 121.282 25.0692C121.641 24.8884 121.951 24.6962 122.219 24.4982C122.222 24.4954 122.228 24.4925 122.231 24.4896C122.296 24.4409 122.361 24.3921 122.42 24.3433C122.605 24.1941 122.768 24.0421 122.906 23.8986C123.23 23.563 123.44 23.256 123.561 23.0437C123.563 23.0437 123.563 23.0379 123.563 23.0379C123.667 22.8572 123.708 22.7482 123.708 22.7482C124.003 22.0998 124.165 21.3739 124.165 20.5706C124.165 17.4204 120.434 15.6458 116.588 13.8164C112.497 11.8704 108.276 9.86238 108.276 6.07077C108.276 2.32101 112.497 0 116.533 0C118.257 0 123.392 0.823398 124.348 1.35703L124.239 4.42971C123.882 4.42397 123.496 4.26905 123.245 4.14855C123.22 4.13494 123.194 4.12186 123.167 4.10863C123.133 4.09118 123.098 4.07345 123.062 4.05387L122.977 4.0051C122.862 3.94198 122.75 3.876 122.641 3.8014C122.532 3.72681 122.426 3.64935 122.322 3.56902C122.09 3.38926 121.866 3.19287 121.635 2.99138C121.083 2.50791 120.496 1.9951 119.687 1.61237C119.454 1.50335 119.204 1.4058 118.932 1.31973C118.926 1.3183 118.921 1.31614 118.915 1.31399C118.909 1.31184 118.903 1.30969 118.897 1.30826C118.632 1.23079 118.346 1.16194 118.036 1.11317C118.016 1.10743 117.995 1.10456 117.974 1.10169C117.824 1.07874 117.668 1.05865 117.506 1.04431C117.482 1.04144 117.455 1.03857 117.432 1.03857C117.282 1.0271 117.125 1.01849 116.963 1.01275H116.895C116.721 1.00701 116.539 1.00988 116.353 1.01562C116.312 1.01849 116.27 1.02136 116.229 1.02136L116.222 1.02166C116.03 1.03017 115.835 1.03881 115.628 1.05865C115.486 1.073 115.351 1.08734 115.218 1.10456C115.174 1.11028 115.133 1.116 115.092 1.12172L115.091 1.12177C115.051 1.12835 115.011 1.13432 114.971 1.14024C114.924 1.14724 114.878 1.15417 114.832 1.16194L114.69 1.18776C114.614 1.2021 114.54 1.21645 114.466 1.23079C114.443 1.23653 114.42 1.24155 114.397 1.24657C114.374 1.25159 114.351 1.25661 114.328 1.26235C114.26 1.27669 114.192 1.29389 114.124 1.31109L114.124 1.31113L113.992 1.34555L113.992 1.34558C113.927 1.36278 113.862 1.37999 113.8 1.40006C113.759 1.41154 113.72 1.42302 113.679 1.43736C113.641 1.44962 113.604 1.46295 113.567 1.47604C113.543 1.48439 113.519 1.49265 113.496 1.50048C113.461 1.51195 113.426 1.52343 113.39 1.53778C113.371 1.54551 113.352 1.553 113.333 1.56037C113.289 1.57761 113.246 1.59429 113.205 1.61237C113.178 1.62384 113.149 1.63532 113.119 1.6468C113.048 1.67836 112.981 1.70991 112.913 1.74147C112.905 1.74578 112.897 1.74936 112.889 1.75295C112.881 1.75654 112.873 1.76012 112.866 1.76442C112.701 1.84763 112.55 1.93083 112.409 2.01976C112.394 2.03124 112.382 2.03985 112.367 2.04845C112.32 2.07788 112.274 2.10939 112.23 2.13942L112.208 2.15461C112.199 2.16034 112.191 2.1668 112.182 2.17325C112.173 2.17971 112.164 2.18617 112.155 2.1919C112.108 2.22346 112.064 2.25502 112.022 2.28945L111.969 2.33248C111.943 2.35306 111.917 2.37486 111.892 2.39629C111.878 2.40772 111.865 2.41905 111.852 2.43003C111.844 2.43721 111.836 2.44439 111.828 2.45157C111.82 2.45874 111.812 2.4659 111.804 2.47306C111.787 2.49028 111.769 2.50677 111.751 2.52327C111.734 2.53977 111.716 2.55626 111.698 2.57348L111.657 2.61364C111.622 2.64807 111.586 2.68537 111.554 2.7198C111.548 2.72553 111.543 2.73127 111.538 2.73701C111.532 2.74275 111.527 2.74849 111.521 2.75422C111.486 2.79439 111.454 2.83169 111.421 2.87185C111.418 2.87616 111.415 2.87974 111.412 2.88333C111.409 2.88691 111.406 2.8905 111.403 2.8948C111.286 3.03825 111.188 3.17883 111.109 3.31654C111.106 3.31941 111.103 3.32515 111.1 3.33089C111.082 3.3586 111.066 3.3879 111.051 3.41643C111.046 3.42629 111.04 3.43606 111.035 3.44565C111.032 3.44996 111.03 3.45498 111.028 3.46001C111.025 3.46502 111.023 3.47004 111.02 3.47434C111.003 3.5059 110.985 3.54033 110.97 3.57188C110.967 3.58336 110.961 3.59484 110.955 3.60631C110.948 3.62496 110.94 3.6426 110.933 3.65984C110.927 3.67177 110.922 3.68351 110.917 3.69525C110.914 3.701 110.912 3.70674 110.91 3.71249C110.907 3.71822 110.905 3.72395 110.902 3.72968C110.899 3.73802 110.895 3.74612 110.892 3.75404C110.884 3.77338 110.876 3.7917 110.87 3.81001C110.868 3.81574 110.866 3.82147 110.864 3.8272C110.862 3.83295 110.86 3.83869 110.858 3.84444C110.849 3.87026 110.84 3.89608 110.832 3.91903C110.829 3.92545 110.827 3.93347 110.825 3.94071C110.824 3.94317 110.823 3.94554 110.823 3.94772C110.819 3.96232 110.815 3.976 110.811 3.98928C110.808 3.99949 110.805 4.00947 110.802 4.01945C110.802 4.02375 110.801 4.02805 110.799 4.03236C110.798 4.03666 110.796 4.04096 110.796 4.04527L110.778 4.11412L110.778 4.11421C110.776 4.11992 110.773 4.12563 110.773 4.13134C110.767 4.15716 110.761 4.18011 110.755 4.20306C110.754 4.20967 110.752 4.21586 110.751 4.22179C110.748 4.2313 110.746 4.24013 110.746 4.24896C110.743 4.2547 110.743 4.26044 110.743 4.26618C110.742 4.27278 110.74 4.27897 110.739 4.28489C110.737 4.2944 110.734 4.30324 110.734 4.31208C110.722 4.36946 110.722 4.40102 110.722 4.40102H110.728Z" fill="#2C3B96"/>
</svg>
