<svg width="117" height="32" viewBox="0 0 117 32" fill="none" xmlns="http://www.w3.org/2000/svg">
<g clip-path="url(#clip0_3641_5665)">
<path d="M15.4524 13.2446C14.4053 14.6916 13.2072 15.7547 11.8563 16.4341C10.5054 17.1135 9.14132 17.4532 7.76023 17.4532C6.74328 17.4532 5.76973 17.2623 4.83579 16.8767C3.90186 16.4929 3.07547 15.9439 2.35474 15.2277C1.63401 14.5116 1.06044 13.6431 0.63593 12.6258C0.211415 11.6067 -0.00178528 10.4627 -0.00178528 9.19388C-0.00178528 7.80569 0.251037 6.54604 0.760454 5.41675C1.26799 4.28747 1.95098 3.31978 2.80944 2.51551C3.66602 1.71124 4.64901 1.09059 5.75652 0.655407C6.86403 0.22022 8.01682 0.00170898 9.2149 0.00170898C10.0809 0.00170898 10.9375 0.130245 11.7865 0.389154C12.6355 0.648062 13.4714 1.0502 14.2902 1.59739L12.7431 3.25918C11.9997 2.47511 11.2299 1.90772 10.4337 1.55332C9.63753 1.19893 8.8451 1.02265 8.05645 1.02265C7.26779 1.02265 6.44329 1.18791 5.67728 1.52027C4.91126 1.85263 4.22827 2.33372 3.62829 2.95988C3.02831 3.58787 2.54719 4.35174 2.18305 5.25149C1.81891 6.15308 1.63778 7.16485 1.63778 8.28678C1.63778 9.40872 1.82646 10.4646 2.20569 11.4102C2.58492 12.3559 3.09623 13.1638 3.74149 13.8359C4.38675 14.5079 5.1339 15.0294 5.98293 15.3967C6.83196 15.7658 7.7357 15.9494 8.69039 15.9494C9.75262 15.9494 10.8337 15.7107 11.9337 15.2296C13.0336 14.7503 14.0846 14.0011 15.0864 12.982L15.4505 13.2464L15.4524 13.2446Z" fill="#1C355E"/>
<path d="M60.7697 0.222168H62.5904V17.233H60.7697V0.222168Z" fill="#1C355E"/>
<path d="M33.2782 0.222168V7.42387H22.5144V0.222168H20.6937V17.233H22.5144V8.51091H33.2782V17.233H35.0989V0.222168H33.2782Z" fill="#1C355E"/>
<path d="M49.4927 10.349C50.1059 10.1617 50.6776 9.92114 51.1889 9.62551C51.9304 9.19767 52.5323 8.63211 52.9813 7.94168C53.4266 7.25493 53.653 6.41761 53.653 5.45175C53.653 4.27657 53.4115 3.33642 52.9341 2.66068C52.4549 1.97944 51.8493 1.45061 51.1342 1.08703C50.4135 0.721623 49.6154 0.482913 48.7645 0.380084C47.9003 0.275419 47.0947 0.222168 46.3683 0.222168H42.3817V17.233H44.2023V10.7989C44.2967 10.808 44.3872 10.8246 44.4835 10.8319C44.8835 10.865 45.2891 10.8797 45.691 10.8797C46.3287 10.8797 46.9626 10.8319 47.5909 10.7493L52.9549 17.244H55.3699L49.4946 10.3471L49.4927 10.349ZM45.5382 10.2223C45.1684 10.2223 44.7872 10.2058 44.4099 10.1727C44.342 10.1672 44.2703 10.158 44.2005 10.1507V0.97135C44.3608 0.954824 44.5269 0.932789 44.6854 0.9181C45.1476 0.875866 45.6042 0.855668 46.04 0.855668C46.8306 0.855668 47.5871 0.940134 48.2928 1.10356C48.9984 1.26882 49.6229 1.53875 50.1456 1.90599C50.6701 2.27507 51.0927 2.75433 51.4021 3.33091C51.7115 3.90748 51.8681 4.61443 51.8681 5.42972C51.8681 6.3258 51.6889 7.09518 51.338 7.71399C50.9851 8.33096 50.5116 8.83226 49.9267 9.1995C49.3475 9.56491 48.6664 9.82933 47.9003 9.98724C47.1438 10.1433 46.3494 10.2223 45.5382 10.2223Z" fill="#1C355E"/>
<path d="M85.9633 0.220215V1.94627C86.1066 1.96463 86.3368 1.983 86.5331 1.983C87.3066 1.74612 88.116 1.58086 88.9688 1.48538C90.031 1.36786 90.9631 1.3091 91.7687 1.3091V17.2329H93.5894V1.3091C94.3932 1.3091 95.3271 1.36786 96.3893 1.48538C97.2403 1.57903 98.0497 1.74612 98.8232 1.983C99.0194 1.983 99.2496 1.96463 99.393 1.94627V0.220215H85.9651H85.9633Z" fill="#1C355E"/>
<path d="M115.334 0.222168C115.334 0.222168 114.293 3.46495 110.736 10.3563H110.691L104.865 0.222168H103.083V0.949315L109.144 11.2855V17.233H110.964V11.1973L117.002 0.947479V0.222168H115.334Z" fill="#1C355E"/>
<path d="M71.5637 3.02419C71.5637 2.96359 71.5694 2.903 71.5769 2.84424H71.5732C71.5732 2.84424 71.5732 2.8222 71.5807 2.78731C71.5807 2.77813 71.5845 2.76895 71.5864 2.75793C71.5864 2.75426 71.5864 2.75059 71.5883 2.74692C71.5883 2.73773 71.592 2.72855 71.5939 2.71754C71.5977 2.70285 71.5996 2.68632 71.6052 2.66979C71.6052 2.66612 71.6052 2.66245 71.609 2.65878C71.6128 2.64409 71.6166 2.6294 71.6203 2.61287C71.6203 2.60736 71.6241 2.60185 71.626 2.59818C71.6298 2.58349 71.6354 2.5688 71.6411 2.55228C71.6411 2.54677 71.6449 2.53942 71.6467 2.53208C71.6524 2.51739 71.6581 2.50086 71.6637 2.48433C71.6675 2.47699 71.6694 2.46964 71.6713 2.4623C71.6769 2.44577 71.6845 2.42741 71.692 2.41089C71.6958 2.40354 71.6977 2.3962 71.7015 2.38885C71.709 2.37049 71.7184 2.35029 71.726 2.33193C71.7298 2.32458 71.7335 2.31724 71.7373 2.30989C71.7467 2.28969 71.7581 2.26766 71.7675 2.24746C71.7713 2.24195 71.7732 2.23461 71.7769 2.2291C71.7901 2.20339 71.8033 2.17952 71.8184 2.15381C71.8203 2.15014 71.8222 2.14647 71.8241 2.1428C71.8769 2.05466 71.9392 1.96285 72.0147 1.8692C72.0184 1.86369 72.0222 1.86002 72.026 1.85451C72.0467 1.8288 72.0694 1.80309 72.092 1.77739C72.0977 1.77004 72.1052 1.7627 72.1128 1.75535C72.1335 1.73148 72.1562 1.70945 72.1788 1.68557C72.1864 1.67639 72.1958 1.66905 72.2052 1.65987C72.2279 1.63783 72.2505 1.6158 72.275 1.59376C72.2845 1.58458 72.2958 1.5754 72.3052 1.56622C72.3297 1.54418 72.3562 1.52399 72.3807 1.50195C72.392 1.49277 72.4033 1.48359 72.4146 1.47441C72.4411 1.45237 72.4694 1.43217 72.4996 1.41014C72.5109 1.40096 72.5222 1.39361 72.5335 1.38443C72.5656 1.36056 72.6014 1.33853 72.6354 1.31649C72.6448 1.31098 72.6524 1.30364 72.6618 1.29813C72.7524 1.24121 72.8505 1.18612 72.958 1.13287C72.9675 1.12736 72.9788 1.12369 72.9882 1.11818C73.0316 1.09798 73.075 1.07778 73.1203 1.05758C73.1392 1.05024 73.158 1.04289 73.1769 1.03371C73.2165 1.01719 73.2561 1.0025 73.2958 0.98597C73.3184 0.976789 73.341 0.969444 73.3656 0.960263C73.4052 0.945573 73.4448 0.93272 73.4844 0.919866C73.5108 0.910685 73.5373 0.90334 73.5637 0.894159C73.6033 0.881305 73.6448 0.870288 73.6882 0.85927C73.7165 0.851925 73.7448 0.84458 73.7731 0.837236C73.8165 0.826218 73.8599 0.815201 73.9052 0.80602C73.9354 0.800511 73.9655 0.793166 73.9957 0.785821C74.0429 0.77664 74.0901 0.767459 74.1391 0.758278C74.1693 0.752769 74.1995 0.74726 74.2316 0.741752C74.2863 0.73257 74.3429 0.725225 74.3995 0.716044C74.4259 0.712372 74.4542 0.708699 74.4825 0.703191C74.5674 0.692173 74.6561 0.682992 74.7467 0.675647C74.8825 0.662794 75.0089 0.655449 75.1353 0.64994C75.1617 0.64994 75.19 0.648104 75.2164 0.646267C75.3372 0.642595 75.4542 0.640759 75.5674 0.642595C75.5825 0.642595 75.5957 0.642595 75.6108 0.642595C75.7164 0.646267 75.8164 0.651776 75.9145 0.659121C75.9315 0.659121 75.9466 0.660957 75.9636 0.662794C76.0692 0.671975 76.1692 0.684828 76.2674 0.699518C76.2806 0.699518 76.2938 0.703191 76.3089 0.705027C76.5089 0.738079 76.6938 0.780312 76.8654 0.831727C76.873 0.835399 76.8805 0.837236 76.8881 0.839072C77.0654 0.894159 77.2258 0.958427 77.3768 1.0282C78.1182 1.37892 78.5711 1.89858 79.0786 2.29337C79.1465 2.34662 79.2144 2.3962 79.2842 2.44394C79.3559 2.49168 79.4276 2.53575 79.5031 2.57615C79.5031 2.57615 79.5257 2.589 79.5578 2.60736C79.5974 2.6294 79.6371 2.64776 79.6767 2.66796C79.8389 2.74692 80.088 2.84607 80.3182 2.84974L80.3899 0.864779C79.7729 0.519568 76.4523 -0.0129395 75.3372 -0.0129395C72.7278 -0.0129395 69.9996 1.48726 69.9996 3.91109C69.9996 8.66692 80.271 9.08191 80.271 13.285C80.271 13.8047 80.1653 14.2729 79.9767 14.6934C79.9767 14.6934 79.9503 14.7632 79.8842 14.8807C79.8842 14.8807 79.8842 14.8844 79.8823 14.8862C79.8031 15.024 79.6691 15.2223 79.4597 15.4389C79.3691 15.5326 79.2654 15.6299 79.1446 15.7272C79.1069 15.7584 79.0654 15.7897 79.0239 15.8209C79.0201 15.8227 79.0182 15.8246 79.0163 15.8264C78.8446 15.9531 78.6427 16.0798 78.4088 16.1955C78.4031 16.1973 78.3994 16.201 78.3937 16.2028C78.339 16.2304 78.2824 16.2579 78.222 16.2836C78.2182 16.2836 78.2164 16.2873 78.2126 16.2873C78.0239 16.3699 77.8182 16.447 77.59 16.515C77.5843 16.5168 77.5768 16.5186 77.5711 16.5205C77.5013 16.5407 77.4315 16.5609 77.3579 16.5792C77.3503 16.5811 77.3428 16.5829 77.3352 16.5848C77.0956 16.6435 76.8334 16.6931 76.5485 16.728C76.5409 16.728 76.5334 16.728 76.5277 16.7298C76.4409 16.7408 76.3523 16.75 76.2617 16.7574C76.2485 16.7574 76.2372 16.7574 76.2258 16.761C76.1315 16.7684 76.0353 16.7757 75.9372 16.7794C75.9334 16.7794 75.9296 16.7794 75.9259 16.7794C75.8202 16.7849 75.7108 16.7886 75.5995 16.7904C74.69 16.8014 74.0731 16.6784 73.609 16.4874C73.609 16.4874 73.609 16.4874 73.6071 16.4874C72.7543 16.1349 72.4128 15.5473 71.7241 15.1084C71.6788 15.0809 71.6335 15.0533 71.5864 15.0276C71.5543 15.0093 71.5203 14.9909 71.4845 14.9725C71.4656 14.9634 71.4449 14.9523 71.426 14.9432C71.4071 14.934 71.3883 14.9248 71.3694 14.9156C71.3524 14.9083 71.3373 14.9009 71.3203 14.8936C70.9505 14.7283 70.4845 14.6053 69.8449 14.5576C69.8411 14.5576 69.8393 14.5576 69.8355 14.5576L69.7638 16.5664C70.76 16.9134 74.2712 17.4441 75.3617 17.4441C79.205 17.4441 82.3841 15.6428 82.3841 12.6424C82.3841 7.74881 71.5675 7.24017 71.5675 3.01501L71.5637 3.02419Z" fill="#1C355E"/>
<path d="M41.3024 31.8569C41.3609 31.2601 41.3685 30.9755 41.3685 30.4558V27.5693C41.3685 27.0496 41.3609 26.765 41.3024 26.1682H44.7514L44.4231 26.5667C43.8024 26.3243 43.0854 26.2821 42.7571 26.2821H42.093V28.7848H42.5609C42.9477 28.7848 43.342 28.7848 44.0212 28.7132V28.9703C43.342 28.8987 42.9477 28.8987 42.5609 28.8987H42.093V31.743H42.9118C43.6344 31.743 44.1325 31.7081 44.9495 31.4731L44.7382 31.8569H41.3043H41.3024Z" fill="#1C355E"/>
<path d="M45.4778 30.1584L46.0627 29.8811C46.2079 31.0618 46.9325 31.8863 47.8966 31.8863C48.5683 31.8863 49.072 31.53 49.072 30.8121C49.072 30.1859 48.4211 29.7673 47.3249 28.9556C46.2796 28.201 45.8419 27.8741 45.8419 27.1708C45.8419 26.4308 46.4551 26.0269 47.3023 26.0269C48.1494 26.0269 48.8003 26.4602 49.3041 27.3416L48.7192 27.5546C48.5815 26.8587 48.2003 26.1389 47.2645 26.1389C46.6362 26.1389 46.2646 26.451 46.2646 26.9211C46.2646 27.4756 46.6872 27.7309 47.5947 28.3791C48.8381 29.2678 49.4871 29.7085 49.4871 30.5844C49.4871 31.5374 48.7418 32.0001 47.8513 32.0001C46.8211 32.0001 45.974 31.53 45.4778 30.1584Z" fill="#1C355E"/>
<path d="M51.6398 31.8569C51.6832 31.2601 51.6983 30.9755 51.6983 30.4558V26.2821H51.6097C51.2889 26.2821 50.7267 26.3243 50.0984 26.5667L49.7776 26.1682H54.336L54.0152 26.5667C53.387 26.3243 52.8247 26.2821 52.5021 26.2821H52.4153V30.4558C52.4153 30.9755 52.4304 31.2601 52.4738 31.8569H51.6417H51.6398Z" fill="#1C355E"/>
<path d="M58.8472 31.857C58.9056 31.1739 58.9056 30.8893 58.9056 30.4559V26.4162C58.7811 27.2334 58.4736 28.0156 58.0944 28.7629L57.5981 28.5352C58.2264 27.7805 58.6566 26.9855 58.8773 26.1665H59.6094C59.5434 26.8918 59.5434 27.1195 59.5434 27.5675V30.4541C59.5434 30.8875 59.5434 31.1721 59.6019 31.8551H58.849L58.8472 31.857Z" fill="#1C355E"/>
<path d="M61.0263 30.3493C61.0263 29.4386 61.7282 28.884 62.6414 28.7353C61.8376 28.5572 61.415 27.9751 61.415 27.3985C61.415 26.6952 62.0282 26.0269 63.2414 26.0269C64.4545 26.0269 65.0677 26.6952 65.0677 27.3985C65.0677 27.9751 64.6432 28.5572 63.8413 28.7353C64.7545 28.884 65.4488 29.4386 65.4488 30.3493C65.4488 31.4511 64.4338 31.9983 63.2414 31.9983C62.0489 31.9983 61.0282 31.4511 61.0282 30.3493H61.0263ZM64.7092 30.3493C64.7092 29.4312 64.1017 28.7996 63.2395 28.7996C62.3772 28.7996 61.7716 29.4331 61.7716 30.3493C61.7716 31.2656 62.3716 31.8844 63.2395 31.8844C64.1074 31.8844 64.7092 31.273 64.7092 30.3493ZM64.4017 27.3985C64.4017 26.8146 64.0734 26.1407 63.2395 26.1407C62.4055 26.1407 62.0772 26.8164 62.0772 27.3985C62.0772 27.9806 62.4055 28.6857 63.2395 28.6857C64.0734 28.6857 64.4017 27.9898 64.4017 27.3985Z" fill="#1C355E"/>
<path d="M66.5978 30.2227H66.6997C66.7941 31.3465 67.4525 31.8294 68.394 31.8294C69.3355 31.8294 69.994 31.0968 69.994 29.9528C69.994 28.9502 69.4015 28.403 68.6204 28.403C68.211 28.403 67.7657 28.5389 67.0997 29.0218L67.0337 28.9649L67.4431 26.1702H70.3072L70.5562 26.9175C69.76 26.6402 69.2638 26.6054 68.3506 26.6054H67.4959L67.1752 28.8309C67.7374 28.4122 68.2789 28.2194 68.877 28.2194C69.8411 28.2194 70.7769 28.7886 70.7769 29.9822C70.7769 31.3263 69.7317 32.002 68.6298 32.002C67.3506 32.002 66.6941 31.3759 66.5978 30.2246V30.2227Z" fill="#1C355E"/>
<path d="M72.0505 29.0126C72.0505 27.2277 73.1901 26.0269 74.6523 26.0269C76.1145 26.0269 77.2541 27.2277 77.2541 29.0126C77.2541 30.7974 76.1145 31.9983 74.6523 31.9983C73.1901 31.9983 72.0505 30.8047 72.0505 29.0126ZM76.507 29.0126C76.507 27.3765 75.8938 26.1407 74.6504 26.1407C73.4071 26.1407 72.7939 27.3783 72.7939 29.0126C72.7939 30.6468 73.4014 31.8844 74.6504 31.8844C75.8994 31.8844 76.507 30.6542 76.507 29.0126Z" fill="#1C355E"/>
</g>
<defs>
<clipPath id="clip0_3641_5665">
<rect width="117" height="32" fill="white"/>
</clipPath>
</defs>
</svg>
