<?xml version="1.0" encoding="utf-8"?>
<svg version="1.1" id="Layer_1" xmlns="http://www.w3.org/2000/svg" xmlns:xlink="http://www.w3.org/1999/xlink" x="0px" y="0px"
	 viewBox="0 0 23.9 27" style="enable-background:new 0 0 23.9 27;" xml:space="preserve">
<style type="text/css">
	.st0{fill-rule:evenodd;clip-rule:evenodd;fill:#2C3B96;}
</style>
<path class="st0" d="M23.9,20.5c-1.6,2.2-3.5,3.9-5.6,4.9C16.3,26.5,14.1,27,12,27c-1.6,0-3.1-0.3-4.5-0.9c-1.4-0.6-2.7-1.4-3.8-2.6
	c-1.1-1.1-2-2.5-2.7-4c-0.7-1.6-1-3.3-1-5.3c0-2.1,0.4-4.1,1.2-5.8C2,6.6,3,5.1,4.3,3.9C5.7,2.6,7.2,1.7,8.9,1c1.7-0.7,3.5-1,5.4-1
	c1.3,0,2.7,0.2,4,0.6c1.3,0.4,2.6,1,3.9,1.9L19.7,5c-1.1-1.2-2.3-2.1-3.6-2.6c-1.2-0.5-2.5-0.8-3.7-0.8S10,1.8,8.8,2.3
	C7.6,2.9,6.5,3.6,5.6,4.6c-0.9,1-1.7,2.2-2.2,3.5c-0.6,1.4-0.8,3-0.8,4.7c0,1.7,0.3,3.4,0.9,4.8c0.6,1.5,1.4,2.7,2.4,3.7
	c1,1,2.2,1.8,3.5,2.4c1.3,0.6,2.7,0.9,4.2,0.9c1.6,0,3.3-0.4,5-1.1c1.7-0.7,3.3-1.9,4.9-3.5L23.9,20.5L23.9,20.5z"/>
</svg>
